%TF.GenerationSoftware,KiCad,Pcbnew,(5.1.6)-1*%
%TF.CreationDate,2021-02-02T19:23:23-08:00*%
%TF.ProjectId,DH_LEDRing,44485f4c-4544-4526-996e-672e6b696361,rev?*%
%TF.SameCoordinates,Original*%
%TF.FileFunction,Paste,Top*%
%TF.FilePolarity,Positive*%
%FSLAX46Y46*%
G04 Gerber Fmt 4.6, Leading zero omitted, Abs format (unit mm)*
G04 Created by KiCad (PCBNEW (5.1.6)-1) date 2021-02-02 19:23:23*
%MOMM*%
%LPD*%
G01*
G04 APERTURE LIST*
%ADD10C,0.100000*%
%ADD11R,0.800000X0.500000*%
%ADD12R,0.800000X0.300000*%
%ADD13R,0.500000X1.000000*%
%ADD14R,0.500000X1.480000*%
G04 APERTURE END LIST*
D10*
%TO.C,D5*%
G36*
X121496574Y-56492468D02*
G01*
X121929586Y-56742468D01*
X121529586Y-57435288D01*
X121096574Y-57185288D01*
X121496574Y-56492468D01*
G37*
G36*
X120803753Y-56092468D02*
G01*
X121063561Y-56242468D01*
X120663561Y-56935288D01*
X120403753Y-56785288D01*
X120803753Y-56092468D01*
G37*
G36*
X119937728Y-55592468D02*
G01*
X120370740Y-55842468D01*
X119970740Y-56535288D01*
X119537728Y-56285288D01*
X119937728Y-55592468D01*
G37*
G36*
X119953753Y-57564712D02*
G01*
X120213561Y-57714712D01*
X119813561Y-58407532D01*
X119553753Y-58257532D01*
X119953753Y-57564712D01*
G37*
G36*
X119087728Y-57064712D02*
G01*
X119520740Y-57314712D01*
X119120740Y-58007532D01*
X118687728Y-57757532D01*
X119087728Y-57064712D01*
G37*
G36*
X120646574Y-57964712D02*
G01*
X121079586Y-58214712D01*
X120679586Y-58907532D01*
X120246574Y-58657532D01*
X120646574Y-57964712D01*
G37*
G36*
X120469445Y-57631506D02*
G01*
X120719445Y-57198494D01*
X121585471Y-57698494D01*
X121335471Y-58131506D01*
X120469445Y-57631506D01*
G37*
G36*
X119031843Y-56801506D02*
G01*
X119281843Y-56368494D01*
X120563561Y-57108494D01*
X120313561Y-57541506D01*
X119031843Y-56801506D01*
G37*
%TD*%
%TO.C,D2*%
G36*
X120246574Y-69342468D02*
G01*
X120679586Y-69092468D01*
X121079586Y-69785288D01*
X120646574Y-70035288D01*
X120246574Y-69342468D01*
G37*
G36*
X119553753Y-69742468D02*
G01*
X119813561Y-69592468D01*
X120213561Y-70285288D01*
X119953753Y-70435288D01*
X119553753Y-69742468D01*
G37*
G36*
X118687728Y-70242468D02*
G01*
X119120740Y-69992468D01*
X119520740Y-70685288D01*
X119087728Y-70935288D01*
X118687728Y-70242468D01*
G37*
G36*
X120403753Y-71214712D02*
G01*
X120663561Y-71064712D01*
X121063561Y-71757532D01*
X120803753Y-71907532D01*
X120403753Y-71214712D01*
G37*
G36*
X119537728Y-71714712D02*
G01*
X119970740Y-71464712D01*
X120370740Y-72157532D01*
X119937728Y-72407532D01*
X119537728Y-71714712D01*
G37*
G36*
X121096574Y-70814712D02*
G01*
X121529586Y-70564712D01*
X121929586Y-71257532D01*
X121496574Y-71507532D01*
X121096574Y-70814712D01*
G37*
G36*
X120719445Y-70801506D02*
G01*
X120469445Y-70368494D01*
X121335471Y-69868494D01*
X121585471Y-70301506D01*
X120719445Y-70801506D01*
G37*
G36*
X119281843Y-71631506D02*
G01*
X119031843Y-71198494D01*
X120313561Y-70458494D01*
X120563561Y-70891506D01*
X119281843Y-71631506D01*
G37*
%TD*%
%TO.C,D15*%
G36*
X139302265Y-74647155D02*
G01*
X138980871Y-74264133D01*
X139593707Y-73749903D01*
X139915101Y-74132925D01*
X139302265Y-74647155D01*
G37*
G36*
X139816495Y-75259991D02*
G01*
X139623659Y-75030177D01*
X140236495Y-74515947D01*
X140429331Y-74745761D01*
X139816495Y-75259991D01*
G37*
G36*
X140459283Y-76026035D02*
G01*
X140137889Y-75643013D01*
X140750725Y-75128783D01*
X141072119Y-75511805D01*
X140459283Y-76026035D01*
G37*
G36*
X141118771Y-74167253D02*
G01*
X140925935Y-73937439D01*
X141538771Y-73423209D01*
X141731607Y-73653023D01*
X141118771Y-74167253D01*
G37*
G36*
X141761559Y-74933297D02*
G01*
X141440165Y-74550275D01*
X142053001Y-74036045D01*
X142374395Y-74419067D01*
X141761559Y-74933297D01*
G37*
G36*
X140604541Y-73554417D02*
G01*
X140283147Y-73171395D01*
X140895983Y-72657165D01*
X141217377Y-73040187D01*
X140604541Y-73554417D01*
G37*
G36*
X140657024Y-73928108D02*
G01*
X140274002Y-74249502D01*
X139631214Y-73483458D01*
X140014236Y-73162064D01*
X140657024Y-73928108D01*
G37*
G36*
X141724052Y-75199742D02*
G01*
X141341030Y-75521136D01*
X140389704Y-74387390D01*
X140772726Y-74065996D01*
X141724052Y-75199742D01*
G37*
%TD*%
%TO.C,D14*%
G36*
X142503426Y-71507532D02*
G01*
X142070414Y-71257532D01*
X142470414Y-70564712D01*
X142903426Y-70814712D01*
X142503426Y-71507532D01*
G37*
G36*
X143196247Y-71907532D02*
G01*
X142936439Y-71757532D01*
X143336439Y-71064712D01*
X143596247Y-71214712D01*
X143196247Y-71907532D01*
G37*
G36*
X144062272Y-72407532D02*
G01*
X143629260Y-72157532D01*
X144029260Y-71464712D01*
X144462272Y-71714712D01*
X144062272Y-72407532D01*
G37*
G36*
X144046247Y-70435288D02*
G01*
X143786439Y-70285288D01*
X144186439Y-69592468D01*
X144446247Y-69742468D01*
X144046247Y-70435288D01*
G37*
G36*
X144912272Y-70935288D02*
G01*
X144479260Y-70685288D01*
X144879260Y-69992468D01*
X145312272Y-70242468D01*
X144912272Y-70935288D01*
G37*
G36*
X143353426Y-70035288D02*
G01*
X142920414Y-69785288D01*
X143320414Y-69092468D01*
X143753426Y-69342468D01*
X143353426Y-70035288D01*
G37*
G36*
X143530555Y-70368494D02*
G01*
X143280555Y-70801506D01*
X142414529Y-70301506D01*
X142664529Y-69868494D01*
X143530555Y-70368494D01*
G37*
G36*
X144968157Y-71198494D02*
G01*
X144718157Y-71631506D01*
X143436439Y-70891506D01*
X143686439Y-70458494D01*
X144968157Y-71198494D01*
G37*
%TD*%
%TO.C,D13*%
G36*
X144536200Y-67479753D02*
G01*
X144043796Y-67392929D01*
X144182714Y-66605083D01*
X144675118Y-66691907D01*
X144536200Y-67479753D01*
G37*
G36*
X145324046Y-67618672D02*
G01*
X145028604Y-67566578D01*
X145167522Y-66778732D01*
X145462964Y-66830826D01*
X145324046Y-67618672D01*
G37*
G36*
X146308854Y-67792320D02*
G01*
X145816450Y-67705496D01*
X145955368Y-66917650D01*
X146447772Y-67004474D01*
X146308854Y-67792320D01*
G37*
G36*
X145619248Y-65944498D02*
G01*
X145323806Y-65892404D01*
X145462724Y-65104558D01*
X145758166Y-65156652D01*
X145619248Y-65944498D01*
G37*
G36*
X146604056Y-66118147D02*
G01*
X146111652Y-66031323D01*
X146250570Y-65243477D01*
X146742974Y-65330301D01*
X146604056Y-66118147D01*
G37*
G36*
X144831402Y-65805580D02*
G01*
X144338998Y-65718756D01*
X144477916Y-64930910D01*
X144970320Y-65017734D01*
X144831402Y-65805580D01*
G37*
G36*
X145111811Y-66058109D02*
G01*
X145024987Y-66550513D01*
X144040179Y-66376865D01*
X144127003Y-65884461D01*
X145111811Y-66058109D01*
G37*
G36*
X146746592Y-66346365D02*
G01*
X146659768Y-66838769D01*
X145202252Y-66581769D01*
X145289076Y-66089365D01*
X146746592Y-66346365D01*
G37*
%TD*%
%TO.C,D12*%
G36*
X144871840Y-62999631D02*
G01*
X144379436Y-63086455D01*
X144240518Y-62298609D01*
X144732922Y-62211785D01*
X144871840Y-62999631D01*
G37*
G36*
X145659686Y-62860713D02*
G01*
X145364244Y-62912807D01*
X145225326Y-62124961D01*
X145520768Y-62072867D01*
X145659686Y-62860713D01*
G37*
G36*
X146644494Y-62687064D02*
G01*
X146152090Y-62773888D01*
X146013172Y-61986042D01*
X146505576Y-61899218D01*
X146644494Y-62687064D01*
G37*
G36*
X145364484Y-61186539D02*
G01*
X145069042Y-61238633D01*
X144930124Y-60450787D01*
X145225566Y-60398693D01*
X145364484Y-61186539D01*
G37*
G36*
X146349292Y-61012891D02*
G01*
X145856888Y-61099715D01*
X145717970Y-60311869D01*
X146210374Y-60225045D01*
X146349292Y-61012891D01*
G37*
G36*
X144576638Y-61325458D02*
G01*
X144084234Y-61412282D01*
X143945316Y-60624436D01*
X144437720Y-60537612D01*
X144576638Y-61325458D01*
G37*
G36*
X144926507Y-61466852D02*
G01*
X145013331Y-61959256D01*
X144028523Y-62132904D01*
X143941699Y-61640500D01*
X144926507Y-61466852D01*
G37*
G36*
X146561288Y-61178596D02*
G01*
X146648112Y-61671000D01*
X145190596Y-61928000D01*
X145103772Y-61435596D01*
X146561288Y-61178596D01*
G37*
%TD*%
%TO.C,D11*%
G36*
X143828426Y-58787436D02*
G01*
X143395414Y-59037436D01*
X142995414Y-58344616D01*
X143428426Y-58094616D01*
X143828426Y-58787436D01*
G37*
G36*
X144521247Y-58387436D02*
G01*
X144261439Y-58537436D01*
X143861439Y-57844616D01*
X144121247Y-57694616D01*
X144521247Y-58387436D01*
G37*
G36*
X145387272Y-57887436D02*
G01*
X144954260Y-58137436D01*
X144554260Y-57444616D01*
X144987272Y-57194616D01*
X145387272Y-57887436D01*
G37*
G36*
X143671247Y-56915192D02*
G01*
X143411439Y-57065192D01*
X143011439Y-56372372D01*
X143271247Y-56222372D01*
X143671247Y-56915192D01*
G37*
G36*
X144537272Y-56415192D02*
G01*
X144104260Y-56665192D01*
X143704260Y-55972372D01*
X144137272Y-55722372D01*
X144537272Y-56415192D01*
G37*
G36*
X142978426Y-57315192D02*
G01*
X142545414Y-57565192D01*
X142145414Y-56872372D01*
X142578426Y-56622372D01*
X142978426Y-57315192D01*
G37*
G36*
X143355555Y-57328398D02*
G01*
X143605555Y-57761410D01*
X142739529Y-58261410D01*
X142489529Y-57828398D01*
X143355555Y-57328398D01*
G37*
G36*
X144793157Y-56498398D02*
G01*
X145043157Y-56931410D01*
X143761439Y-57671410D01*
X143511439Y-57238398D01*
X144793157Y-56498398D01*
G37*
%TD*%
%TO.C,D10*%
G36*
X141217377Y-54959813D02*
G01*
X140895983Y-55342835D01*
X140283147Y-54828605D01*
X140604541Y-54445583D01*
X141217377Y-54959813D01*
G37*
G36*
X141731607Y-54346977D02*
G01*
X141538771Y-54576791D01*
X140925935Y-54062561D01*
X141118771Y-53832747D01*
X141731607Y-54346977D01*
G37*
G36*
X142374395Y-53580933D02*
G01*
X142053001Y-53963955D01*
X141440165Y-53449725D01*
X141761559Y-53066703D01*
X142374395Y-53580933D01*
G37*
G36*
X140429331Y-53254239D02*
G01*
X140236495Y-53484053D01*
X139623659Y-52969823D01*
X139816495Y-52740009D01*
X140429331Y-53254239D01*
G37*
G36*
X141072119Y-52488195D02*
G01*
X140750725Y-52871217D01*
X140137889Y-52356987D01*
X140459283Y-51973965D01*
X141072119Y-52488195D01*
G37*
G36*
X139915101Y-53867075D02*
G01*
X139593707Y-54250097D01*
X138980871Y-53735867D01*
X139302265Y-53352845D01*
X139915101Y-53867075D01*
G37*
G36*
X140274002Y-53750498D02*
G01*
X140657024Y-54071892D01*
X140014236Y-54837936D01*
X139631214Y-54516542D01*
X140274002Y-53750498D01*
G37*
G36*
X141341030Y-52478864D02*
G01*
X141724052Y-52800258D01*
X140772726Y-53934004D01*
X140389704Y-53612610D01*
X141341030Y-52478864D01*
G37*
%TD*%
%TO.C,D9*%
G36*
X137569575Y-52352475D02*
G01*
X137398565Y-52822321D01*
X136646811Y-52548705D01*
X136817821Y-52078859D01*
X137569575Y-52352475D01*
G37*
G36*
X137843191Y-51600721D02*
G01*
X137740585Y-51882629D01*
X136988831Y-51609013D01*
X137091437Y-51327105D01*
X137843191Y-51600721D01*
G37*
G36*
X138185211Y-50661029D02*
G01*
X138014201Y-51130875D01*
X137262447Y-50857259D01*
X137433457Y-50387413D01*
X138185211Y-50661029D01*
G37*
G36*
X136245713Y-51019287D02*
G01*
X136143107Y-51301195D01*
X135391353Y-51027579D01*
X135493959Y-50745671D01*
X136245713Y-51019287D01*
G37*
G36*
X136587733Y-50079595D02*
G01*
X136416723Y-50549441D01*
X135664969Y-50275825D01*
X135835979Y-49805979D01*
X136587733Y-50079595D01*
G37*
G36*
X135972097Y-51771041D02*
G01*
X135801087Y-52240887D01*
X135049333Y-51967271D01*
X135220343Y-51497425D01*
X135972097Y-51771041D01*
G37*
G36*
X136269482Y-51538744D02*
G01*
X136739328Y-51709754D01*
X136397308Y-52649446D01*
X135927462Y-52478436D01*
X136269482Y-51538744D01*
G37*
G36*
X136837236Y-49978853D02*
G01*
X137307082Y-50149863D01*
X136800892Y-51540609D01*
X136331046Y-51369599D01*
X136837236Y-49978853D01*
G37*
%TD*%
D11*
%TO.C,D8*%
X132850000Y-51400000D03*
D12*
X132850000Y-50500000D03*
D11*
X132850000Y-49600000D03*
D12*
X131150000Y-50500000D03*
D11*
X131150000Y-49600000D03*
X131150000Y-51400000D03*
D13*
X132000000Y-51330000D03*
D14*
X132000000Y-49910000D03*
%TD*%
D10*
%TO.C,D7*%
G36*
X128779657Y-51497425D02*
G01*
X128950667Y-51967271D01*
X128198913Y-52240887D01*
X128027903Y-51771041D01*
X128779657Y-51497425D01*
G37*
G36*
X128506041Y-50745671D02*
G01*
X128608647Y-51027579D01*
X127856893Y-51301195D01*
X127754287Y-51019287D01*
X128506041Y-50745671D01*
G37*
G36*
X128164021Y-49805979D02*
G01*
X128335031Y-50275825D01*
X127583277Y-50549441D01*
X127412267Y-50079595D01*
X128164021Y-49805979D01*
G37*
G36*
X126908563Y-51327105D02*
G01*
X127011169Y-51609013D01*
X126259415Y-51882629D01*
X126156809Y-51600721D01*
X126908563Y-51327105D01*
G37*
G36*
X126566543Y-50387413D02*
G01*
X126737553Y-50857259D01*
X125985799Y-51130875D01*
X125814789Y-50661029D01*
X126566543Y-50387413D01*
G37*
G36*
X127182179Y-52078859D02*
G01*
X127353189Y-52548705D01*
X126601435Y-52822321D01*
X126430425Y-52352475D01*
X127182179Y-52078859D01*
G37*
G36*
X127260672Y-51709754D02*
G01*
X127730518Y-51538744D01*
X128072538Y-52478436D01*
X127602692Y-52649446D01*
X127260672Y-51709754D01*
G37*
G36*
X126692918Y-50149863D02*
G01*
X127162764Y-49978853D01*
X127668954Y-51369599D01*
X127199108Y-51540609D01*
X126692918Y-50149863D01*
G37*
%TD*%
%TO.C,D6*%
G36*
X124697735Y-53352845D02*
G01*
X125019129Y-53735867D01*
X124406293Y-54250097D01*
X124084899Y-53867075D01*
X124697735Y-53352845D01*
G37*
G36*
X124183505Y-52740009D02*
G01*
X124376341Y-52969823D01*
X123763505Y-53484053D01*
X123570669Y-53254239D01*
X124183505Y-52740009D01*
G37*
G36*
X123540717Y-51973965D02*
G01*
X123862111Y-52356987D01*
X123249275Y-52871217D01*
X122927881Y-52488195D01*
X123540717Y-51973965D01*
G37*
G36*
X122881229Y-53832747D02*
G01*
X123074065Y-54062561D01*
X122461229Y-54576791D01*
X122268393Y-54346977D01*
X122881229Y-53832747D01*
G37*
G36*
X122238441Y-53066703D02*
G01*
X122559835Y-53449725D01*
X121946999Y-53963955D01*
X121625605Y-53580933D01*
X122238441Y-53066703D01*
G37*
G36*
X123395459Y-54445583D02*
G01*
X123716853Y-54828605D01*
X123104017Y-55342835D01*
X122782623Y-54959813D01*
X123395459Y-54445583D01*
G37*
G36*
X123342976Y-54071892D02*
G01*
X123725998Y-53750498D01*
X124368786Y-54516542D01*
X123985764Y-54837936D01*
X123342976Y-54071892D01*
G37*
G36*
X122275948Y-52800258D02*
G01*
X122658970Y-52478864D01*
X123610296Y-53612610D01*
X123227274Y-53934004D01*
X122275948Y-52800258D01*
G37*
%TD*%
%TO.C,D4*%
G36*
X119562280Y-60537612D02*
G01*
X120054684Y-60624436D01*
X119915766Y-61412282D01*
X119423362Y-61325458D01*
X119562280Y-60537612D01*
G37*
G36*
X118774434Y-60398693D02*
G01*
X119069876Y-60450787D01*
X118930958Y-61238633D01*
X118635516Y-61186539D01*
X118774434Y-60398693D01*
G37*
G36*
X117789626Y-60225045D02*
G01*
X118282030Y-60311869D01*
X118143112Y-61099715D01*
X117650708Y-61012891D01*
X117789626Y-60225045D01*
G37*
G36*
X118479232Y-62072867D02*
G01*
X118774674Y-62124961D01*
X118635756Y-62912807D01*
X118340314Y-62860713D01*
X118479232Y-62072867D01*
G37*
G36*
X117494424Y-61899218D02*
G01*
X117986828Y-61986042D01*
X117847910Y-62773888D01*
X117355506Y-62687064D01*
X117494424Y-61899218D01*
G37*
G36*
X119267078Y-62211785D02*
G01*
X119759482Y-62298609D01*
X119620564Y-63086455D01*
X119128160Y-62999631D01*
X119267078Y-62211785D01*
G37*
G36*
X118986669Y-61959256D02*
G01*
X119073493Y-61466852D01*
X120058301Y-61640500D01*
X119971477Y-62132904D01*
X118986669Y-61959256D01*
G37*
G36*
X117351888Y-61671000D02*
G01*
X117438712Y-61178596D01*
X118896228Y-61435596D01*
X118809404Y-61928000D01*
X117351888Y-61671000D01*
G37*
%TD*%
%TO.C,D3*%
G36*
X119128160Y-65000369D02*
G01*
X119620564Y-64913545D01*
X119759482Y-65701391D01*
X119267078Y-65788215D01*
X119128160Y-65000369D01*
G37*
G36*
X118340314Y-65139287D02*
G01*
X118635756Y-65087193D01*
X118774674Y-65875039D01*
X118479232Y-65927133D01*
X118340314Y-65139287D01*
G37*
G36*
X117355506Y-65312936D02*
G01*
X117847910Y-65226112D01*
X117986828Y-66013958D01*
X117494424Y-66100782D01*
X117355506Y-65312936D01*
G37*
G36*
X118635516Y-66813461D02*
G01*
X118930958Y-66761367D01*
X119069876Y-67549213D01*
X118774434Y-67601307D01*
X118635516Y-66813461D01*
G37*
G36*
X117650708Y-66987109D02*
G01*
X118143112Y-66900285D01*
X118282030Y-67688131D01*
X117789626Y-67774955D01*
X117650708Y-66987109D01*
G37*
G36*
X119423362Y-66674542D02*
G01*
X119915766Y-66587718D01*
X120054684Y-67375564D01*
X119562280Y-67462388D01*
X119423362Y-66674542D01*
G37*
G36*
X119073493Y-66533148D02*
G01*
X118986669Y-66040744D01*
X119971477Y-65867096D01*
X120058301Y-66359500D01*
X119073493Y-66533148D01*
G37*
G36*
X117438712Y-66821404D02*
G01*
X117351888Y-66329000D01*
X118809404Y-66072000D01*
X118896228Y-66564404D01*
X117438712Y-66821404D01*
G37*
%TD*%
%TO.C,D1*%
G36*
X122782623Y-73040187D02*
G01*
X123104017Y-72657165D01*
X123716853Y-73171395D01*
X123395459Y-73554417D01*
X122782623Y-73040187D01*
G37*
G36*
X122268393Y-73653023D02*
G01*
X122461229Y-73423209D01*
X123074065Y-73937439D01*
X122881229Y-74167253D01*
X122268393Y-73653023D01*
G37*
G36*
X121625605Y-74419067D02*
G01*
X121946999Y-74036045D01*
X122559835Y-74550275D01*
X122238441Y-74933297D01*
X121625605Y-74419067D01*
G37*
G36*
X123570669Y-74745761D02*
G01*
X123763505Y-74515947D01*
X124376341Y-75030177D01*
X124183505Y-75259991D01*
X123570669Y-74745761D01*
G37*
G36*
X122927881Y-75511805D02*
G01*
X123249275Y-75128783D01*
X123862111Y-75643013D01*
X123540717Y-76026035D01*
X122927881Y-75511805D01*
G37*
G36*
X124084899Y-74132925D02*
G01*
X124406293Y-73749903D01*
X125019129Y-74264133D01*
X124697735Y-74647155D01*
X124084899Y-74132925D01*
G37*
G36*
X123725998Y-74249502D02*
G01*
X123342976Y-73928108D01*
X123985764Y-73162064D01*
X124368786Y-73483458D01*
X123725998Y-74249502D01*
G37*
G36*
X122658970Y-75521136D02*
G01*
X122275948Y-75199742D01*
X123227274Y-74065996D01*
X123610296Y-74387390D01*
X122658970Y-75521136D01*
G37*
%TD*%
%TO.C,C2*%
G36*
G01*
X137012500Y-73743750D02*
X137012500Y-74256250D01*
G75*
G02*
X136793750Y-74475000I-218750J0D01*
G01*
X136356250Y-74475000D01*
G75*
G02*
X136137500Y-74256250I0J218750D01*
G01*
X136137500Y-73743750D01*
G75*
G02*
X136356250Y-73525000I218750J0D01*
G01*
X136793750Y-73525000D01*
G75*
G02*
X137012500Y-73743750I0J-218750D01*
G01*
G37*
G36*
G01*
X135437500Y-73743750D02*
X135437500Y-74256250D01*
G75*
G02*
X135218750Y-74475000I-218750J0D01*
G01*
X134781250Y-74475000D01*
G75*
G02*
X134562500Y-74256250I0J218750D01*
G01*
X134562500Y-73743750D01*
G75*
G02*
X134781250Y-73525000I218750J0D01*
G01*
X135218750Y-73525000D01*
G75*
G02*
X135437500Y-73743750I0J-218750D01*
G01*
G37*
%TD*%
%TO.C,C1*%
G36*
G01*
X126987500Y-74256250D02*
X126987500Y-73743750D01*
G75*
G02*
X127206250Y-73525000I218750J0D01*
G01*
X127643750Y-73525000D01*
G75*
G02*
X127862500Y-73743750I0J-218750D01*
G01*
X127862500Y-74256250D01*
G75*
G02*
X127643750Y-74475000I-218750J0D01*
G01*
X127206250Y-74475000D01*
G75*
G02*
X126987500Y-74256250I0J218750D01*
G01*
G37*
G36*
G01*
X128562500Y-74256250D02*
X128562500Y-73743750D01*
G75*
G02*
X128781250Y-73525000I218750J0D01*
G01*
X129218750Y-73525000D01*
G75*
G02*
X129437500Y-73743750I0J-218750D01*
G01*
X129437500Y-74256250D01*
G75*
G02*
X129218750Y-74475000I-218750J0D01*
G01*
X128781250Y-74475000D01*
G75*
G02*
X128562500Y-74256250I0J218750D01*
G01*
G37*
%TD*%
M02*
