%TF.GenerationSoftware,KiCad,Pcbnew,(5.1.6)-1*%
%TF.CreationDate,2021-02-02T19:23:23-08:00*%
%TF.ProjectId,DH_LEDRing,44485f4c-4544-4526-996e-672e6b696361,rev?*%
%TF.SameCoordinates,Original*%
%TF.FileFunction,Copper,L2,Bot*%
%TF.FilePolarity,Positive*%
%FSLAX46Y46*%
G04 Gerber Fmt 4.6, Leading zero omitted, Abs format (unit mm)*
G04 Created by KiCad (PCBNEW (5.1.6)-1) date 2021-02-02 19:23:23*
%MOMM*%
%LPD*%
G01*
G04 APERTURE LIST*
%TA.AperFunction,ComponentPad*%
%ADD10R,1.700000X1.700000*%
%TD*%
%TA.AperFunction,ComponentPad*%
%ADD11O,1.700000X1.700000*%
%TD*%
%TA.AperFunction,WasherPad*%
%ADD12C,4.000000*%
%TD*%
%TA.AperFunction,ComponentPad*%
%ADD13C,1.800000*%
%TD*%
%TA.AperFunction,ViaPad*%
%ADD14C,5.000000*%
%TD*%
%TA.AperFunction,ViaPad*%
%ADD15C,0.800000*%
%TD*%
%TA.AperFunction,Conductor*%
%ADD16C,0.254000*%
%TD*%
G04 APERTURE END LIST*
D10*
%TO.P,J1,1*%
%TO.N,GNDD*%
X124000000Y-78740000D03*
D11*
%TO.P,J1,2*%
%TO.N,SDI*%
X126540000Y-78740000D03*
%TO.P,J1,3*%
%TO.N,CKI*%
X129080000Y-78740000D03*
%TO.P,J1,4*%
%TO.N,VDD*%
X131620000Y-78740000D03*
%TO.P,J1,5*%
%TO.N,CKO*%
X134160000Y-78740000D03*
%TO.P,J1,6*%
%TO.N,SDO*%
X136700000Y-78740000D03*
%TO.P,J1,7*%
%TO.N,GNDD*%
X139240000Y-78740000D03*
%TD*%
D12*
%TO.P,RV1,*%
%TO.N,*%
X136750000Y-64000000D03*
X127250000Y-64000000D03*
D13*
%TO.P,RV1,1*%
%TO.N,VAA*%
X134500000Y-71500000D03*
%TO.P,RV1,2*%
%TO.N,POT*%
X132000000Y-71500000D03*
%TO.P,RV1,3*%
%TO.N,GND*%
X129500000Y-71500000D03*
%TD*%
D10*
%TO.P,J2,1*%
%TO.N,VAA*%
X134620000Y-55880000D03*
D11*
%TO.P,J2,2*%
%TO.N,POT*%
X132080000Y-55880000D03*
%TO.P,J2,3*%
%TO.N,GND*%
X129540000Y-55880000D03*
%TD*%
D14*
%TO.N,*%
X118000000Y-50000000D03*
X146000000Y-50000000D03*
X118000000Y-78000000D03*
X146000000Y-78000000D03*
D15*
%TO.N,GNDD*%
X122500000Y-72000000D03*
X120000000Y-68500000D03*
X119500000Y-64000000D03*
X120000000Y-59500000D03*
X122000000Y-55500000D03*
X125500000Y-53000000D03*
X130000000Y-51500000D03*
X134000000Y-51500000D03*
X138500000Y-53000000D03*
X142000000Y-56000000D03*
X144000000Y-60000000D03*
X144500000Y-64000000D03*
X144000000Y-68500000D03*
X141500000Y-72000000D03*
X126000000Y-75000000D03*
X132000000Y-74000000D03*
X142000000Y-76000000D03*
X138000000Y-73000000D03*
X146000000Y-72000000D03*
X141000000Y-70000000D03*
X148000000Y-67000000D03*
X142000000Y-66000000D03*
X148000000Y-61000000D03*
X142000000Y-63000000D03*
X146000000Y-56000000D03*
X141000000Y-59000000D03*
X142000000Y-52000000D03*
X139000000Y-56000000D03*
X137000000Y-49000000D03*
X136000000Y-54000000D03*
X132000000Y-48000000D03*
X132000000Y-54000000D03*
X126000000Y-49000000D03*
X129000000Y-54000000D03*
X122000000Y-52000000D03*
X125000000Y-56000000D03*
X118000000Y-56000000D03*
X123000000Y-59000000D03*
X116000000Y-61000000D03*
X122000000Y-62000000D03*
X116000000Y-67000000D03*
X122000000Y-66000000D03*
X118000000Y-72000000D03*
X123000000Y-69000000D03*
X122000000Y-76000000D03*
X125000000Y-72000000D03*
X130000000Y-73000000D03*
X134000000Y-73000000D03*
%TD*%
D16*
%TO.N,GNDD*%
G36*
X149569001Y-81569000D02*
G01*
X114431000Y-81569000D01*
X114431000Y-77716246D01*
X115119000Y-77716246D01*
X115119000Y-78283754D01*
X115229715Y-78840357D01*
X115446891Y-79364665D01*
X115762181Y-79836530D01*
X116163470Y-80237819D01*
X116635335Y-80553109D01*
X117159643Y-80770285D01*
X117716246Y-80881000D01*
X118283754Y-80881000D01*
X118840357Y-80770285D01*
X119364665Y-80553109D01*
X119836530Y-80237819D01*
X120237819Y-79836530D01*
X120402545Y-79590000D01*
X122511928Y-79590000D01*
X122524188Y-79714482D01*
X122560498Y-79834180D01*
X122619463Y-79944494D01*
X122698815Y-80041185D01*
X122795506Y-80120537D01*
X122905820Y-80179502D01*
X123025518Y-80215812D01*
X123150000Y-80228072D01*
X123714250Y-80225000D01*
X123873000Y-80066250D01*
X123873000Y-78867000D01*
X122673750Y-78867000D01*
X122515000Y-79025750D01*
X122511928Y-79590000D01*
X120402545Y-79590000D01*
X120553109Y-79364665D01*
X120770285Y-78840357D01*
X120881000Y-78283754D01*
X120881000Y-77890000D01*
X122511928Y-77890000D01*
X122515000Y-78454250D01*
X122673750Y-78613000D01*
X123873000Y-78613000D01*
X123873000Y-77413750D01*
X124127000Y-77413750D01*
X124127000Y-78613000D01*
X124147000Y-78613000D01*
X124147000Y-78867000D01*
X124127000Y-78867000D01*
X124127000Y-80066250D01*
X124285750Y-80225000D01*
X124850000Y-80228072D01*
X124974482Y-80215812D01*
X125094180Y-80179502D01*
X125204494Y-80120537D01*
X125301185Y-80041185D01*
X125380537Y-79944494D01*
X125439502Y-79834180D01*
X125475812Y-79714482D01*
X125488072Y-79590000D01*
X125486927Y-79379706D01*
X125583820Y-79524717D01*
X125755283Y-79696180D01*
X125956903Y-79830898D01*
X126180931Y-79923693D01*
X126418757Y-79971000D01*
X126661243Y-79971000D01*
X126899069Y-79923693D01*
X127123097Y-79830898D01*
X127324717Y-79696180D01*
X127496180Y-79524717D01*
X127630898Y-79323097D01*
X127723693Y-79099069D01*
X127771000Y-78861243D01*
X127771000Y-78618757D01*
X127849000Y-78618757D01*
X127849000Y-78861243D01*
X127896307Y-79099069D01*
X127989102Y-79323097D01*
X128123820Y-79524717D01*
X128295283Y-79696180D01*
X128496903Y-79830898D01*
X128720931Y-79923693D01*
X128958757Y-79971000D01*
X129201243Y-79971000D01*
X129439069Y-79923693D01*
X129663097Y-79830898D01*
X129864717Y-79696180D01*
X130036180Y-79524717D01*
X130170898Y-79323097D01*
X130263693Y-79099069D01*
X130311000Y-78861243D01*
X130311000Y-78618757D01*
X130389000Y-78618757D01*
X130389000Y-78861243D01*
X130436307Y-79099069D01*
X130529102Y-79323097D01*
X130663820Y-79524717D01*
X130835283Y-79696180D01*
X131036903Y-79830898D01*
X131260931Y-79923693D01*
X131498757Y-79971000D01*
X131741243Y-79971000D01*
X131979069Y-79923693D01*
X132203097Y-79830898D01*
X132404717Y-79696180D01*
X132576180Y-79524717D01*
X132710898Y-79323097D01*
X132803693Y-79099069D01*
X132851000Y-78861243D01*
X132851000Y-78618757D01*
X132929000Y-78618757D01*
X132929000Y-78861243D01*
X132976307Y-79099069D01*
X133069102Y-79323097D01*
X133203820Y-79524717D01*
X133375283Y-79696180D01*
X133576903Y-79830898D01*
X133800931Y-79923693D01*
X134038757Y-79971000D01*
X134281243Y-79971000D01*
X134519069Y-79923693D01*
X134743097Y-79830898D01*
X134944717Y-79696180D01*
X135116180Y-79524717D01*
X135250898Y-79323097D01*
X135343693Y-79099069D01*
X135391000Y-78861243D01*
X135391000Y-78618757D01*
X135469000Y-78618757D01*
X135469000Y-78861243D01*
X135516307Y-79099069D01*
X135609102Y-79323097D01*
X135743820Y-79524717D01*
X135915283Y-79696180D01*
X136116903Y-79830898D01*
X136340931Y-79923693D01*
X136578757Y-79971000D01*
X136821243Y-79971000D01*
X137059069Y-79923693D01*
X137283097Y-79830898D01*
X137484717Y-79696180D01*
X137656180Y-79524717D01*
X137790898Y-79323097D01*
X137838228Y-79208832D01*
X137895843Y-79371252D01*
X138044822Y-79621355D01*
X138239731Y-79837588D01*
X138473080Y-80011641D01*
X138735901Y-80136825D01*
X138883110Y-80181476D01*
X139113000Y-80060155D01*
X139113000Y-78867000D01*
X139367000Y-78867000D01*
X139367000Y-80060155D01*
X139596890Y-80181476D01*
X139744099Y-80136825D01*
X140006920Y-80011641D01*
X140240269Y-79837588D01*
X140435178Y-79621355D01*
X140584157Y-79371252D01*
X140681481Y-79096891D01*
X140560814Y-78867000D01*
X139367000Y-78867000D01*
X139113000Y-78867000D01*
X139093000Y-78867000D01*
X139093000Y-78613000D01*
X139113000Y-78613000D01*
X139113000Y-77419845D01*
X139367000Y-77419845D01*
X139367000Y-78613000D01*
X140560814Y-78613000D01*
X140681481Y-78383109D01*
X140584157Y-78108748D01*
X140435178Y-77858645D01*
X140306822Y-77716246D01*
X143119000Y-77716246D01*
X143119000Y-78283754D01*
X143229715Y-78840357D01*
X143446891Y-79364665D01*
X143762181Y-79836530D01*
X144163470Y-80237819D01*
X144635335Y-80553109D01*
X145159643Y-80770285D01*
X145716246Y-80881000D01*
X146283754Y-80881000D01*
X146840357Y-80770285D01*
X147364665Y-80553109D01*
X147836530Y-80237819D01*
X148237819Y-79836530D01*
X148553109Y-79364665D01*
X148770285Y-78840357D01*
X148881000Y-78283754D01*
X148881000Y-77716246D01*
X148770285Y-77159643D01*
X148553109Y-76635335D01*
X148237819Y-76163470D01*
X147836530Y-75762181D01*
X147364665Y-75446891D01*
X146840357Y-75229715D01*
X146283754Y-75119000D01*
X145716246Y-75119000D01*
X145159643Y-75229715D01*
X144635335Y-75446891D01*
X144163470Y-75762181D01*
X143762181Y-76163470D01*
X143446891Y-76635335D01*
X143229715Y-77159643D01*
X143119000Y-77716246D01*
X140306822Y-77716246D01*
X140240269Y-77642412D01*
X140006920Y-77468359D01*
X139744099Y-77343175D01*
X139596890Y-77298524D01*
X139367000Y-77419845D01*
X139113000Y-77419845D01*
X138883110Y-77298524D01*
X138735901Y-77343175D01*
X138473080Y-77468359D01*
X138239731Y-77642412D01*
X138044822Y-77858645D01*
X137895843Y-78108748D01*
X137838228Y-78271168D01*
X137790898Y-78156903D01*
X137656180Y-77955283D01*
X137484717Y-77783820D01*
X137283097Y-77649102D01*
X137059069Y-77556307D01*
X136821243Y-77509000D01*
X136578757Y-77509000D01*
X136340931Y-77556307D01*
X136116903Y-77649102D01*
X135915283Y-77783820D01*
X135743820Y-77955283D01*
X135609102Y-78156903D01*
X135516307Y-78380931D01*
X135469000Y-78618757D01*
X135391000Y-78618757D01*
X135343693Y-78380931D01*
X135250898Y-78156903D01*
X135116180Y-77955283D01*
X134944717Y-77783820D01*
X134743097Y-77649102D01*
X134519069Y-77556307D01*
X134281243Y-77509000D01*
X134038757Y-77509000D01*
X133800931Y-77556307D01*
X133576903Y-77649102D01*
X133375283Y-77783820D01*
X133203820Y-77955283D01*
X133069102Y-78156903D01*
X132976307Y-78380931D01*
X132929000Y-78618757D01*
X132851000Y-78618757D01*
X132803693Y-78380931D01*
X132710898Y-78156903D01*
X132576180Y-77955283D01*
X132404717Y-77783820D01*
X132203097Y-77649102D01*
X131979069Y-77556307D01*
X131741243Y-77509000D01*
X131498757Y-77509000D01*
X131260931Y-77556307D01*
X131036903Y-77649102D01*
X130835283Y-77783820D01*
X130663820Y-77955283D01*
X130529102Y-78156903D01*
X130436307Y-78380931D01*
X130389000Y-78618757D01*
X130311000Y-78618757D01*
X130263693Y-78380931D01*
X130170898Y-78156903D01*
X130036180Y-77955283D01*
X129864717Y-77783820D01*
X129663097Y-77649102D01*
X129439069Y-77556307D01*
X129201243Y-77509000D01*
X128958757Y-77509000D01*
X128720931Y-77556307D01*
X128496903Y-77649102D01*
X128295283Y-77783820D01*
X128123820Y-77955283D01*
X127989102Y-78156903D01*
X127896307Y-78380931D01*
X127849000Y-78618757D01*
X127771000Y-78618757D01*
X127723693Y-78380931D01*
X127630898Y-78156903D01*
X127496180Y-77955283D01*
X127324717Y-77783820D01*
X127123097Y-77649102D01*
X126899069Y-77556307D01*
X126661243Y-77509000D01*
X126418757Y-77509000D01*
X126180931Y-77556307D01*
X125956903Y-77649102D01*
X125755283Y-77783820D01*
X125583820Y-77955283D01*
X125486927Y-78100294D01*
X125488072Y-77890000D01*
X125475812Y-77765518D01*
X125439502Y-77645820D01*
X125380537Y-77535506D01*
X125301185Y-77438815D01*
X125204494Y-77359463D01*
X125094180Y-77300498D01*
X124974482Y-77264188D01*
X124850000Y-77251928D01*
X124285750Y-77255000D01*
X124127000Y-77413750D01*
X123873000Y-77413750D01*
X123714250Y-77255000D01*
X123150000Y-77251928D01*
X123025518Y-77264188D01*
X122905820Y-77300498D01*
X122795506Y-77359463D01*
X122698815Y-77438815D01*
X122619463Y-77535506D01*
X122560498Y-77645820D01*
X122524188Y-77765518D01*
X122511928Y-77890000D01*
X120881000Y-77890000D01*
X120881000Y-77716246D01*
X120770285Y-77159643D01*
X120553109Y-76635335D01*
X120237819Y-76163470D01*
X119836530Y-75762181D01*
X119364665Y-75446891D01*
X118840357Y-75229715D01*
X118283754Y-75119000D01*
X117716246Y-75119000D01*
X117159643Y-75229715D01*
X116635335Y-75446891D01*
X116163470Y-75762181D01*
X115762181Y-76163470D01*
X115446891Y-76635335D01*
X115229715Y-77159643D01*
X115119000Y-77716246D01*
X114431000Y-77716246D01*
X114431000Y-71373833D01*
X128219000Y-71373833D01*
X128219000Y-71626167D01*
X128268228Y-71873654D01*
X128364793Y-72106781D01*
X128504982Y-72316590D01*
X128683410Y-72495018D01*
X128893219Y-72635207D01*
X129126346Y-72731772D01*
X129373833Y-72781000D01*
X129626167Y-72781000D01*
X129873654Y-72731772D01*
X130106781Y-72635207D01*
X130316590Y-72495018D01*
X130495018Y-72316590D01*
X130635207Y-72106781D01*
X130731772Y-71873654D01*
X130750000Y-71782015D01*
X130768228Y-71873654D01*
X130864793Y-72106781D01*
X131004982Y-72316590D01*
X131183410Y-72495018D01*
X131393219Y-72635207D01*
X131626346Y-72731772D01*
X131873833Y-72781000D01*
X132126167Y-72781000D01*
X132373654Y-72731772D01*
X132606781Y-72635207D01*
X132816590Y-72495018D01*
X132995018Y-72316590D01*
X133135207Y-72106781D01*
X133231772Y-71873654D01*
X133250000Y-71782015D01*
X133268228Y-71873654D01*
X133364793Y-72106781D01*
X133504982Y-72316590D01*
X133683410Y-72495018D01*
X133893219Y-72635207D01*
X134126346Y-72731772D01*
X134373833Y-72781000D01*
X134626167Y-72781000D01*
X134873654Y-72731772D01*
X135106781Y-72635207D01*
X135316590Y-72495018D01*
X135495018Y-72316590D01*
X135635207Y-72106781D01*
X135731772Y-71873654D01*
X135781000Y-71626167D01*
X135781000Y-71373833D01*
X135731772Y-71126346D01*
X135635207Y-70893219D01*
X135495018Y-70683410D01*
X135316590Y-70504982D01*
X135106781Y-70364793D01*
X134873654Y-70268228D01*
X134626167Y-70219000D01*
X134373833Y-70219000D01*
X134126346Y-70268228D01*
X133893219Y-70364793D01*
X133683410Y-70504982D01*
X133504982Y-70683410D01*
X133364793Y-70893219D01*
X133268228Y-71126346D01*
X133250000Y-71217985D01*
X133231772Y-71126346D01*
X133135207Y-70893219D01*
X132995018Y-70683410D01*
X132816590Y-70504982D01*
X132606781Y-70364793D01*
X132373654Y-70268228D01*
X132126167Y-70219000D01*
X131873833Y-70219000D01*
X131626346Y-70268228D01*
X131393219Y-70364793D01*
X131183410Y-70504982D01*
X131004982Y-70683410D01*
X130864793Y-70893219D01*
X130768228Y-71126346D01*
X130750000Y-71217985D01*
X130731772Y-71126346D01*
X130635207Y-70893219D01*
X130495018Y-70683410D01*
X130316590Y-70504982D01*
X130106781Y-70364793D01*
X129873654Y-70268228D01*
X129626167Y-70219000D01*
X129373833Y-70219000D01*
X129126346Y-70268228D01*
X128893219Y-70364793D01*
X128683410Y-70504982D01*
X128504982Y-70683410D01*
X128364793Y-70893219D01*
X128268228Y-71126346D01*
X128219000Y-71373833D01*
X114431000Y-71373833D01*
X114431000Y-63765492D01*
X124869000Y-63765492D01*
X124869000Y-64234508D01*
X124960500Y-64694512D01*
X125139985Y-65127827D01*
X125400556Y-65517799D01*
X125732201Y-65849444D01*
X126122173Y-66110015D01*
X126555488Y-66289500D01*
X127015492Y-66381000D01*
X127484508Y-66381000D01*
X127944512Y-66289500D01*
X128377827Y-66110015D01*
X128767799Y-65849444D01*
X129099444Y-65517799D01*
X129360015Y-65127827D01*
X129539500Y-64694512D01*
X129631000Y-64234508D01*
X129631000Y-63765492D01*
X134369000Y-63765492D01*
X134369000Y-64234508D01*
X134460500Y-64694512D01*
X134639985Y-65127827D01*
X134900556Y-65517799D01*
X135232201Y-65849444D01*
X135622173Y-66110015D01*
X136055488Y-66289500D01*
X136515492Y-66381000D01*
X136984508Y-66381000D01*
X137444512Y-66289500D01*
X137877827Y-66110015D01*
X138267799Y-65849444D01*
X138599444Y-65517799D01*
X138860015Y-65127827D01*
X139039500Y-64694512D01*
X139131000Y-64234508D01*
X139131000Y-63765492D01*
X139039500Y-63305488D01*
X138860015Y-62872173D01*
X138599444Y-62482201D01*
X138267799Y-62150556D01*
X137877827Y-61889985D01*
X137444512Y-61710500D01*
X136984508Y-61619000D01*
X136515492Y-61619000D01*
X136055488Y-61710500D01*
X135622173Y-61889985D01*
X135232201Y-62150556D01*
X134900556Y-62482201D01*
X134639985Y-62872173D01*
X134460500Y-63305488D01*
X134369000Y-63765492D01*
X129631000Y-63765492D01*
X129539500Y-63305488D01*
X129360015Y-62872173D01*
X129099444Y-62482201D01*
X128767799Y-62150556D01*
X128377827Y-61889985D01*
X127944512Y-61710500D01*
X127484508Y-61619000D01*
X127015492Y-61619000D01*
X126555488Y-61710500D01*
X126122173Y-61889985D01*
X125732201Y-62150556D01*
X125400556Y-62482201D01*
X125139985Y-62872173D01*
X124960500Y-63305488D01*
X124869000Y-63765492D01*
X114431000Y-63765492D01*
X114431000Y-55758757D01*
X128309000Y-55758757D01*
X128309000Y-56001243D01*
X128356307Y-56239069D01*
X128449102Y-56463097D01*
X128583820Y-56664717D01*
X128755283Y-56836180D01*
X128956903Y-56970898D01*
X129180931Y-57063693D01*
X129418757Y-57111000D01*
X129661243Y-57111000D01*
X129899069Y-57063693D01*
X130123097Y-56970898D01*
X130324717Y-56836180D01*
X130496180Y-56664717D01*
X130630898Y-56463097D01*
X130723693Y-56239069D01*
X130771000Y-56001243D01*
X130771000Y-55758757D01*
X130849000Y-55758757D01*
X130849000Y-56001243D01*
X130896307Y-56239069D01*
X130989102Y-56463097D01*
X131123820Y-56664717D01*
X131295283Y-56836180D01*
X131496903Y-56970898D01*
X131720931Y-57063693D01*
X131958757Y-57111000D01*
X132201243Y-57111000D01*
X132439069Y-57063693D01*
X132663097Y-56970898D01*
X132864717Y-56836180D01*
X133036180Y-56664717D01*
X133170898Y-56463097D01*
X133263693Y-56239069D01*
X133311000Y-56001243D01*
X133311000Y-55758757D01*
X133263693Y-55520931D01*
X133170898Y-55296903D01*
X133036180Y-55095283D01*
X132970897Y-55030000D01*
X133387157Y-55030000D01*
X133387157Y-56730000D01*
X133394513Y-56804689D01*
X133416299Y-56876508D01*
X133451678Y-56942696D01*
X133499289Y-57000711D01*
X133557304Y-57048322D01*
X133623492Y-57083701D01*
X133695311Y-57105487D01*
X133770000Y-57112843D01*
X135470000Y-57112843D01*
X135544689Y-57105487D01*
X135616508Y-57083701D01*
X135682696Y-57048322D01*
X135740711Y-57000711D01*
X135788322Y-56942696D01*
X135823701Y-56876508D01*
X135845487Y-56804689D01*
X135852843Y-56730000D01*
X135852843Y-55030000D01*
X135845487Y-54955311D01*
X135823701Y-54883492D01*
X135788322Y-54817304D01*
X135740711Y-54759289D01*
X135682696Y-54711678D01*
X135616508Y-54676299D01*
X135544689Y-54654513D01*
X135470000Y-54647157D01*
X133770000Y-54647157D01*
X133695311Y-54654513D01*
X133623492Y-54676299D01*
X133557304Y-54711678D01*
X133499289Y-54759289D01*
X133451678Y-54817304D01*
X133416299Y-54883492D01*
X133394513Y-54955311D01*
X133387157Y-55030000D01*
X132970897Y-55030000D01*
X132864717Y-54923820D01*
X132663097Y-54789102D01*
X132439069Y-54696307D01*
X132201243Y-54649000D01*
X131958757Y-54649000D01*
X131720931Y-54696307D01*
X131496903Y-54789102D01*
X131295283Y-54923820D01*
X131123820Y-55095283D01*
X130989102Y-55296903D01*
X130896307Y-55520931D01*
X130849000Y-55758757D01*
X130771000Y-55758757D01*
X130723693Y-55520931D01*
X130630898Y-55296903D01*
X130496180Y-55095283D01*
X130324717Y-54923820D01*
X130123097Y-54789102D01*
X129899069Y-54696307D01*
X129661243Y-54649000D01*
X129418757Y-54649000D01*
X129180931Y-54696307D01*
X128956903Y-54789102D01*
X128755283Y-54923820D01*
X128583820Y-55095283D01*
X128449102Y-55296903D01*
X128356307Y-55520931D01*
X128309000Y-55758757D01*
X114431000Y-55758757D01*
X114431000Y-49716246D01*
X115119000Y-49716246D01*
X115119000Y-50283754D01*
X115229715Y-50840357D01*
X115446891Y-51364665D01*
X115762181Y-51836530D01*
X116163470Y-52237819D01*
X116635335Y-52553109D01*
X117159643Y-52770285D01*
X117716246Y-52881000D01*
X118283754Y-52881000D01*
X118840357Y-52770285D01*
X119364665Y-52553109D01*
X119836530Y-52237819D01*
X120237819Y-51836530D01*
X120553109Y-51364665D01*
X120770285Y-50840357D01*
X120881000Y-50283754D01*
X120881000Y-49716246D01*
X143119000Y-49716246D01*
X143119000Y-50283754D01*
X143229715Y-50840357D01*
X143446891Y-51364665D01*
X143762181Y-51836530D01*
X144163470Y-52237819D01*
X144635335Y-52553109D01*
X145159643Y-52770285D01*
X145716246Y-52881000D01*
X146283754Y-52881000D01*
X146840357Y-52770285D01*
X147364665Y-52553109D01*
X147836530Y-52237819D01*
X148237819Y-51836530D01*
X148553109Y-51364665D01*
X148770285Y-50840357D01*
X148881000Y-50283754D01*
X148881000Y-49716246D01*
X148770285Y-49159643D01*
X148553109Y-48635335D01*
X148237819Y-48163470D01*
X147836530Y-47762181D01*
X147364665Y-47446891D01*
X146840357Y-47229715D01*
X146283754Y-47119000D01*
X145716246Y-47119000D01*
X145159643Y-47229715D01*
X144635335Y-47446891D01*
X144163470Y-47762181D01*
X143762181Y-48163470D01*
X143446891Y-48635335D01*
X143229715Y-49159643D01*
X143119000Y-49716246D01*
X120881000Y-49716246D01*
X120770285Y-49159643D01*
X120553109Y-48635335D01*
X120237819Y-48163470D01*
X119836530Y-47762181D01*
X119364665Y-47446891D01*
X118840357Y-47229715D01*
X118283754Y-47119000D01*
X117716246Y-47119000D01*
X117159643Y-47229715D01*
X116635335Y-47446891D01*
X116163470Y-47762181D01*
X115762181Y-48163470D01*
X115446891Y-48635335D01*
X115229715Y-49159643D01*
X115119000Y-49716246D01*
X114431000Y-49716246D01*
X114431000Y-46431000D01*
X149569000Y-46431000D01*
X149569001Y-81569000D01*
G37*
X149569001Y-81569000D02*
X114431000Y-81569000D01*
X114431000Y-77716246D01*
X115119000Y-77716246D01*
X115119000Y-78283754D01*
X115229715Y-78840357D01*
X115446891Y-79364665D01*
X115762181Y-79836530D01*
X116163470Y-80237819D01*
X116635335Y-80553109D01*
X117159643Y-80770285D01*
X117716246Y-80881000D01*
X118283754Y-80881000D01*
X118840357Y-80770285D01*
X119364665Y-80553109D01*
X119836530Y-80237819D01*
X120237819Y-79836530D01*
X120402545Y-79590000D01*
X122511928Y-79590000D01*
X122524188Y-79714482D01*
X122560498Y-79834180D01*
X122619463Y-79944494D01*
X122698815Y-80041185D01*
X122795506Y-80120537D01*
X122905820Y-80179502D01*
X123025518Y-80215812D01*
X123150000Y-80228072D01*
X123714250Y-80225000D01*
X123873000Y-80066250D01*
X123873000Y-78867000D01*
X122673750Y-78867000D01*
X122515000Y-79025750D01*
X122511928Y-79590000D01*
X120402545Y-79590000D01*
X120553109Y-79364665D01*
X120770285Y-78840357D01*
X120881000Y-78283754D01*
X120881000Y-77890000D01*
X122511928Y-77890000D01*
X122515000Y-78454250D01*
X122673750Y-78613000D01*
X123873000Y-78613000D01*
X123873000Y-77413750D01*
X124127000Y-77413750D01*
X124127000Y-78613000D01*
X124147000Y-78613000D01*
X124147000Y-78867000D01*
X124127000Y-78867000D01*
X124127000Y-80066250D01*
X124285750Y-80225000D01*
X124850000Y-80228072D01*
X124974482Y-80215812D01*
X125094180Y-80179502D01*
X125204494Y-80120537D01*
X125301185Y-80041185D01*
X125380537Y-79944494D01*
X125439502Y-79834180D01*
X125475812Y-79714482D01*
X125488072Y-79590000D01*
X125486927Y-79379706D01*
X125583820Y-79524717D01*
X125755283Y-79696180D01*
X125956903Y-79830898D01*
X126180931Y-79923693D01*
X126418757Y-79971000D01*
X126661243Y-79971000D01*
X126899069Y-79923693D01*
X127123097Y-79830898D01*
X127324717Y-79696180D01*
X127496180Y-79524717D01*
X127630898Y-79323097D01*
X127723693Y-79099069D01*
X127771000Y-78861243D01*
X127771000Y-78618757D01*
X127849000Y-78618757D01*
X127849000Y-78861243D01*
X127896307Y-79099069D01*
X127989102Y-79323097D01*
X128123820Y-79524717D01*
X128295283Y-79696180D01*
X128496903Y-79830898D01*
X128720931Y-79923693D01*
X128958757Y-79971000D01*
X129201243Y-79971000D01*
X129439069Y-79923693D01*
X129663097Y-79830898D01*
X129864717Y-79696180D01*
X130036180Y-79524717D01*
X130170898Y-79323097D01*
X130263693Y-79099069D01*
X130311000Y-78861243D01*
X130311000Y-78618757D01*
X130389000Y-78618757D01*
X130389000Y-78861243D01*
X130436307Y-79099069D01*
X130529102Y-79323097D01*
X130663820Y-79524717D01*
X130835283Y-79696180D01*
X131036903Y-79830898D01*
X131260931Y-79923693D01*
X131498757Y-79971000D01*
X131741243Y-79971000D01*
X131979069Y-79923693D01*
X132203097Y-79830898D01*
X132404717Y-79696180D01*
X132576180Y-79524717D01*
X132710898Y-79323097D01*
X132803693Y-79099069D01*
X132851000Y-78861243D01*
X132851000Y-78618757D01*
X132929000Y-78618757D01*
X132929000Y-78861243D01*
X132976307Y-79099069D01*
X133069102Y-79323097D01*
X133203820Y-79524717D01*
X133375283Y-79696180D01*
X133576903Y-79830898D01*
X133800931Y-79923693D01*
X134038757Y-79971000D01*
X134281243Y-79971000D01*
X134519069Y-79923693D01*
X134743097Y-79830898D01*
X134944717Y-79696180D01*
X135116180Y-79524717D01*
X135250898Y-79323097D01*
X135343693Y-79099069D01*
X135391000Y-78861243D01*
X135391000Y-78618757D01*
X135469000Y-78618757D01*
X135469000Y-78861243D01*
X135516307Y-79099069D01*
X135609102Y-79323097D01*
X135743820Y-79524717D01*
X135915283Y-79696180D01*
X136116903Y-79830898D01*
X136340931Y-79923693D01*
X136578757Y-79971000D01*
X136821243Y-79971000D01*
X137059069Y-79923693D01*
X137283097Y-79830898D01*
X137484717Y-79696180D01*
X137656180Y-79524717D01*
X137790898Y-79323097D01*
X137838228Y-79208832D01*
X137895843Y-79371252D01*
X138044822Y-79621355D01*
X138239731Y-79837588D01*
X138473080Y-80011641D01*
X138735901Y-80136825D01*
X138883110Y-80181476D01*
X139113000Y-80060155D01*
X139113000Y-78867000D01*
X139367000Y-78867000D01*
X139367000Y-80060155D01*
X139596890Y-80181476D01*
X139744099Y-80136825D01*
X140006920Y-80011641D01*
X140240269Y-79837588D01*
X140435178Y-79621355D01*
X140584157Y-79371252D01*
X140681481Y-79096891D01*
X140560814Y-78867000D01*
X139367000Y-78867000D01*
X139113000Y-78867000D01*
X139093000Y-78867000D01*
X139093000Y-78613000D01*
X139113000Y-78613000D01*
X139113000Y-77419845D01*
X139367000Y-77419845D01*
X139367000Y-78613000D01*
X140560814Y-78613000D01*
X140681481Y-78383109D01*
X140584157Y-78108748D01*
X140435178Y-77858645D01*
X140306822Y-77716246D01*
X143119000Y-77716246D01*
X143119000Y-78283754D01*
X143229715Y-78840357D01*
X143446891Y-79364665D01*
X143762181Y-79836530D01*
X144163470Y-80237819D01*
X144635335Y-80553109D01*
X145159643Y-80770285D01*
X145716246Y-80881000D01*
X146283754Y-80881000D01*
X146840357Y-80770285D01*
X147364665Y-80553109D01*
X147836530Y-80237819D01*
X148237819Y-79836530D01*
X148553109Y-79364665D01*
X148770285Y-78840357D01*
X148881000Y-78283754D01*
X148881000Y-77716246D01*
X148770285Y-77159643D01*
X148553109Y-76635335D01*
X148237819Y-76163470D01*
X147836530Y-75762181D01*
X147364665Y-75446891D01*
X146840357Y-75229715D01*
X146283754Y-75119000D01*
X145716246Y-75119000D01*
X145159643Y-75229715D01*
X144635335Y-75446891D01*
X144163470Y-75762181D01*
X143762181Y-76163470D01*
X143446891Y-76635335D01*
X143229715Y-77159643D01*
X143119000Y-77716246D01*
X140306822Y-77716246D01*
X140240269Y-77642412D01*
X140006920Y-77468359D01*
X139744099Y-77343175D01*
X139596890Y-77298524D01*
X139367000Y-77419845D01*
X139113000Y-77419845D01*
X138883110Y-77298524D01*
X138735901Y-77343175D01*
X138473080Y-77468359D01*
X138239731Y-77642412D01*
X138044822Y-77858645D01*
X137895843Y-78108748D01*
X137838228Y-78271168D01*
X137790898Y-78156903D01*
X137656180Y-77955283D01*
X137484717Y-77783820D01*
X137283097Y-77649102D01*
X137059069Y-77556307D01*
X136821243Y-77509000D01*
X136578757Y-77509000D01*
X136340931Y-77556307D01*
X136116903Y-77649102D01*
X135915283Y-77783820D01*
X135743820Y-77955283D01*
X135609102Y-78156903D01*
X135516307Y-78380931D01*
X135469000Y-78618757D01*
X135391000Y-78618757D01*
X135343693Y-78380931D01*
X135250898Y-78156903D01*
X135116180Y-77955283D01*
X134944717Y-77783820D01*
X134743097Y-77649102D01*
X134519069Y-77556307D01*
X134281243Y-77509000D01*
X134038757Y-77509000D01*
X133800931Y-77556307D01*
X133576903Y-77649102D01*
X133375283Y-77783820D01*
X133203820Y-77955283D01*
X133069102Y-78156903D01*
X132976307Y-78380931D01*
X132929000Y-78618757D01*
X132851000Y-78618757D01*
X132803693Y-78380931D01*
X132710898Y-78156903D01*
X132576180Y-77955283D01*
X132404717Y-77783820D01*
X132203097Y-77649102D01*
X131979069Y-77556307D01*
X131741243Y-77509000D01*
X131498757Y-77509000D01*
X131260931Y-77556307D01*
X131036903Y-77649102D01*
X130835283Y-77783820D01*
X130663820Y-77955283D01*
X130529102Y-78156903D01*
X130436307Y-78380931D01*
X130389000Y-78618757D01*
X130311000Y-78618757D01*
X130263693Y-78380931D01*
X130170898Y-78156903D01*
X130036180Y-77955283D01*
X129864717Y-77783820D01*
X129663097Y-77649102D01*
X129439069Y-77556307D01*
X129201243Y-77509000D01*
X128958757Y-77509000D01*
X128720931Y-77556307D01*
X128496903Y-77649102D01*
X128295283Y-77783820D01*
X128123820Y-77955283D01*
X127989102Y-78156903D01*
X127896307Y-78380931D01*
X127849000Y-78618757D01*
X127771000Y-78618757D01*
X127723693Y-78380931D01*
X127630898Y-78156903D01*
X127496180Y-77955283D01*
X127324717Y-77783820D01*
X127123097Y-77649102D01*
X126899069Y-77556307D01*
X126661243Y-77509000D01*
X126418757Y-77509000D01*
X126180931Y-77556307D01*
X125956903Y-77649102D01*
X125755283Y-77783820D01*
X125583820Y-77955283D01*
X125486927Y-78100294D01*
X125488072Y-77890000D01*
X125475812Y-77765518D01*
X125439502Y-77645820D01*
X125380537Y-77535506D01*
X125301185Y-77438815D01*
X125204494Y-77359463D01*
X125094180Y-77300498D01*
X124974482Y-77264188D01*
X124850000Y-77251928D01*
X124285750Y-77255000D01*
X124127000Y-77413750D01*
X123873000Y-77413750D01*
X123714250Y-77255000D01*
X123150000Y-77251928D01*
X123025518Y-77264188D01*
X122905820Y-77300498D01*
X122795506Y-77359463D01*
X122698815Y-77438815D01*
X122619463Y-77535506D01*
X122560498Y-77645820D01*
X122524188Y-77765518D01*
X122511928Y-77890000D01*
X120881000Y-77890000D01*
X120881000Y-77716246D01*
X120770285Y-77159643D01*
X120553109Y-76635335D01*
X120237819Y-76163470D01*
X119836530Y-75762181D01*
X119364665Y-75446891D01*
X118840357Y-75229715D01*
X118283754Y-75119000D01*
X117716246Y-75119000D01*
X117159643Y-75229715D01*
X116635335Y-75446891D01*
X116163470Y-75762181D01*
X115762181Y-76163470D01*
X115446891Y-76635335D01*
X115229715Y-77159643D01*
X115119000Y-77716246D01*
X114431000Y-77716246D01*
X114431000Y-71373833D01*
X128219000Y-71373833D01*
X128219000Y-71626167D01*
X128268228Y-71873654D01*
X128364793Y-72106781D01*
X128504982Y-72316590D01*
X128683410Y-72495018D01*
X128893219Y-72635207D01*
X129126346Y-72731772D01*
X129373833Y-72781000D01*
X129626167Y-72781000D01*
X129873654Y-72731772D01*
X130106781Y-72635207D01*
X130316590Y-72495018D01*
X130495018Y-72316590D01*
X130635207Y-72106781D01*
X130731772Y-71873654D01*
X130750000Y-71782015D01*
X130768228Y-71873654D01*
X130864793Y-72106781D01*
X131004982Y-72316590D01*
X131183410Y-72495018D01*
X131393219Y-72635207D01*
X131626346Y-72731772D01*
X131873833Y-72781000D01*
X132126167Y-72781000D01*
X132373654Y-72731772D01*
X132606781Y-72635207D01*
X132816590Y-72495018D01*
X132995018Y-72316590D01*
X133135207Y-72106781D01*
X133231772Y-71873654D01*
X133250000Y-71782015D01*
X133268228Y-71873654D01*
X133364793Y-72106781D01*
X133504982Y-72316590D01*
X133683410Y-72495018D01*
X133893219Y-72635207D01*
X134126346Y-72731772D01*
X134373833Y-72781000D01*
X134626167Y-72781000D01*
X134873654Y-72731772D01*
X135106781Y-72635207D01*
X135316590Y-72495018D01*
X135495018Y-72316590D01*
X135635207Y-72106781D01*
X135731772Y-71873654D01*
X135781000Y-71626167D01*
X135781000Y-71373833D01*
X135731772Y-71126346D01*
X135635207Y-70893219D01*
X135495018Y-70683410D01*
X135316590Y-70504982D01*
X135106781Y-70364793D01*
X134873654Y-70268228D01*
X134626167Y-70219000D01*
X134373833Y-70219000D01*
X134126346Y-70268228D01*
X133893219Y-70364793D01*
X133683410Y-70504982D01*
X133504982Y-70683410D01*
X133364793Y-70893219D01*
X133268228Y-71126346D01*
X133250000Y-71217985D01*
X133231772Y-71126346D01*
X133135207Y-70893219D01*
X132995018Y-70683410D01*
X132816590Y-70504982D01*
X132606781Y-70364793D01*
X132373654Y-70268228D01*
X132126167Y-70219000D01*
X131873833Y-70219000D01*
X131626346Y-70268228D01*
X131393219Y-70364793D01*
X131183410Y-70504982D01*
X131004982Y-70683410D01*
X130864793Y-70893219D01*
X130768228Y-71126346D01*
X130750000Y-71217985D01*
X130731772Y-71126346D01*
X130635207Y-70893219D01*
X130495018Y-70683410D01*
X130316590Y-70504982D01*
X130106781Y-70364793D01*
X129873654Y-70268228D01*
X129626167Y-70219000D01*
X129373833Y-70219000D01*
X129126346Y-70268228D01*
X128893219Y-70364793D01*
X128683410Y-70504982D01*
X128504982Y-70683410D01*
X128364793Y-70893219D01*
X128268228Y-71126346D01*
X128219000Y-71373833D01*
X114431000Y-71373833D01*
X114431000Y-63765492D01*
X124869000Y-63765492D01*
X124869000Y-64234508D01*
X124960500Y-64694512D01*
X125139985Y-65127827D01*
X125400556Y-65517799D01*
X125732201Y-65849444D01*
X126122173Y-66110015D01*
X126555488Y-66289500D01*
X127015492Y-66381000D01*
X127484508Y-66381000D01*
X127944512Y-66289500D01*
X128377827Y-66110015D01*
X128767799Y-65849444D01*
X129099444Y-65517799D01*
X129360015Y-65127827D01*
X129539500Y-64694512D01*
X129631000Y-64234508D01*
X129631000Y-63765492D01*
X134369000Y-63765492D01*
X134369000Y-64234508D01*
X134460500Y-64694512D01*
X134639985Y-65127827D01*
X134900556Y-65517799D01*
X135232201Y-65849444D01*
X135622173Y-66110015D01*
X136055488Y-66289500D01*
X136515492Y-66381000D01*
X136984508Y-66381000D01*
X137444512Y-66289500D01*
X137877827Y-66110015D01*
X138267799Y-65849444D01*
X138599444Y-65517799D01*
X138860015Y-65127827D01*
X139039500Y-64694512D01*
X139131000Y-64234508D01*
X139131000Y-63765492D01*
X139039500Y-63305488D01*
X138860015Y-62872173D01*
X138599444Y-62482201D01*
X138267799Y-62150556D01*
X137877827Y-61889985D01*
X137444512Y-61710500D01*
X136984508Y-61619000D01*
X136515492Y-61619000D01*
X136055488Y-61710500D01*
X135622173Y-61889985D01*
X135232201Y-62150556D01*
X134900556Y-62482201D01*
X134639985Y-62872173D01*
X134460500Y-63305488D01*
X134369000Y-63765492D01*
X129631000Y-63765492D01*
X129539500Y-63305488D01*
X129360015Y-62872173D01*
X129099444Y-62482201D01*
X128767799Y-62150556D01*
X128377827Y-61889985D01*
X127944512Y-61710500D01*
X127484508Y-61619000D01*
X127015492Y-61619000D01*
X126555488Y-61710500D01*
X126122173Y-61889985D01*
X125732201Y-62150556D01*
X125400556Y-62482201D01*
X125139985Y-62872173D01*
X124960500Y-63305488D01*
X124869000Y-63765492D01*
X114431000Y-63765492D01*
X114431000Y-55758757D01*
X128309000Y-55758757D01*
X128309000Y-56001243D01*
X128356307Y-56239069D01*
X128449102Y-56463097D01*
X128583820Y-56664717D01*
X128755283Y-56836180D01*
X128956903Y-56970898D01*
X129180931Y-57063693D01*
X129418757Y-57111000D01*
X129661243Y-57111000D01*
X129899069Y-57063693D01*
X130123097Y-56970898D01*
X130324717Y-56836180D01*
X130496180Y-56664717D01*
X130630898Y-56463097D01*
X130723693Y-56239069D01*
X130771000Y-56001243D01*
X130771000Y-55758757D01*
X130849000Y-55758757D01*
X130849000Y-56001243D01*
X130896307Y-56239069D01*
X130989102Y-56463097D01*
X131123820Y-56664717D01*
X131295283Y-56836180D01*
X131496903Y-56970898D01*
X131720931Y-57063693D01*
X131958757Y-57111000D01*
X132201243Y-57111000D01*
X132439069Y-57063693D01*
X132663097Y-56970898D01*
X132864717Y-56836180D01*
X133036180Y-56664717D01*
X133170898Y-56463097D01*
X133263693Y-56239069D01*
X133311000Y-56001243D01*
X133311000Y-55758757D01*
X133263693Y-55520931D01*
X133170898Y-55296903D01*
X133036180Y-55095283D01*
X132970897Y-55030000D01*
X133387157Y-55030000D01*
X133387157Y-56730000D01*
X133394513Y-56804689D01*
X133416299Y-56876508D01*
X133451678Y-56942696D01*
X133499289Y-57000711D01*
X133557304Y-57048322D01*
X133623492Y-57083701D01*
X133695311Y-57105487D01*
X133770000Y-57112843D01*
X135470000Y-57112843D01*
X135544689Y-57105487D01*
X135616508Y-57083701D01*
X135682696Y-57048322D01*
X135740711Y-57000711D01*
X135788322Y-56942696D01*
X135823701Y-56876508D01*
X135845487Y-56804689D01*
X135852843Y-56730000D01*
X135852843Y-55030000D01*
X135845487Y-54955311D01*
X135823701Y-54883492D01*
X135788322Y-54817304D01*
X135740711Y-54759289D01*
X135682696Y-54711678D01*
X135616508Y-54676299D01*
X135544689Y-54654513D01*
X135470000Y-54647157D01*
X133770000Y-54647157D01*
X133695311Y-54654513D01*
X133623492Y-54676299D01*
X133557304Y-54711678D01*
X133499289Y-54759289D01*
X133451678Y-54817304D01*
X133416299Y-54883492D01*
X133394513Y-54955311D01*
X133387157Y-55030000D01*
X132970897Y-55030000D01*
X132864717Y-54923820D01*
X132663097Y-54789102D01*
X132439069Y-54696307D01*
X132201243Y-54649000D01*
X131958757Y-54649000D01*
X131720931Y-54696307D01*
X131496903Y-54789102D01*
X131295283Y-54923820D01*
X131123820Y-55095283D01*
X130989102Y-55296903D01*
X130896307Y-55520931D01*
X130849000Y-55758757D01*
X130771000Y-55758757D01*
X130723693Y-55520931D01*
X130630898Y-55296903D01*
X130496180Y-55095283D01*
X130324717Y-54923820D01*
X130123097Y-54789102D01*
X129899069Y-54696307D01*
X129661243Y-54649000D01*
X129418757Y-54649000D01*
X129180931Y-54696307D01*
X128956903Y-54789102D01*
X128755283Y-54923820D01*
X128583820Y-55095283D01*
X128449102Y-55296903D01*
X128356307Y-55520931D01*
X128309000Y-55758757D01*
X114431000Y-55758757D01*
X114431000Y-49716246D01*
X115119000Y-49716246D01*
X115119000Y-50283754D01*
X115229715Y-50840357D01*
X115446891Y-51364665D01*
X115762181Y-51836530D01*
X116163470Y-52237819D01*
X116635335Y-52553109D01*
X117159643Y-52770285D01*
X117716246Y-52881000D01*
X118283754Y-52881000D01*
X118840357Y-52770285D01*
X119364665Y-52553109D01*
X119836530Y-52237819D01*
X120237819Y-51836530D01*
X120553109Y-51364665D01*
X120770285Y-50840357D01*
X120881000Y-50283754D01*
X120881000Y-49716246D01*
X143119000Y-49716246D01*
X143119000Y-50283754D01*
X143229715Y-50840357D01*
X143446891Y-51364665D01*
X143762181Y-51836530D01*
X144163470Y-52237819D01*
X144635335Y-52553109D01*
X145159643Y-52770285D01*
X145716246Y-52881000D01*
X146283754Y-52881000D01*
X146840357Y-52770285D01*
X147364665Y-52553109D01*
X147836530Y-52237819D01*
X148237819Y-51836530D01*
X148553109Y-51364665D01*
X148770285Y-50840357D01*
X148881000Y-50283754D01*
X148881000Y-49716246D01*
X148770285Y-49159643D01*
X148553109Y-48635335D01*
X148237819Y-48163470D01*
X147836530Y-47762181D01*
X147364665Y-47446891D01*
X146840357Y-47229715D01*
X146283754Y-47119000D01*
X145716246Y-47119000D01*
X145159643Y-47229715D01*
X144635335Y-47446891D01*
X144163470Y-47762181D01*
X143762181Y-48163470D01*
X143446891Y-48635335D01*
X143229715Y-49159643D01*
X143119000Y-49716246D01*
X120881000Y-49716246D01*
X120770285Y-49159643D01*
X120553109Y-48635335D01*
X120237819Y-48163470D01*
X119836530Y-47762181D01*
X119364665Y-47446891D01*
X118840357Y-47229715D01*
X118283754Y-47119000D01*
X117716246Y-47119000D01*
X117159643Y-47229715D01*
X116635335Y-47446891D01*
X116163470Y-47762181D01*
X115762181Y-48163470D01*
X115446891Y-48635335D01*
X115229715Y-49159643D01*
X115119000Y-49716246D01*
X114431000Y-49716246D01*
X114431000Y-46431000D01*
X149569000Y-46431000D01*
X149569001Y-81569000D01*
%TD*%
M02*
