%TF.GenerationSoftware,KiCad,Pcbnew,(5.1.6)-1*%
%TF.CreationDate,2021-02-02T19:23:23-08:00*%
%TF.ProjectId,DH_LEDRing,44485f4c-4544-4526-996e-672e6b696361,rev?*%
%TF.SameCoordinates,Original*%
%TF.FileFunction,Legend,Bot*%
%TF.FilePolarity,Positive*%
%FSLAX46Y46*%
G04 Gerber Fmt 4.6, Leading zero omitted, Abs format (unit mm)*
G04 Created by KiCad (PCBNEW (5.1.6)-1) date 2021-02-02 19:23:23*
%MOMM*%
%LPD*%
G01*
G04 APERTURE LIST*
%ADD10C,0.150000*%
%ADD11C,0.120000*%
G04 APERTURE END LIST*
D10*
X134071428Y-59627380D02*
X134404761Y-59151190D01*
X134642857Y-59627380D02*
X134642857Y-58627380D01*
X134261904Y-58627380D01*
X134166666Y-58675000D01*
X134119047Y-58722619D01*
X134071428Y-58817857D01*
X134071428Y-58960714D01*
X134119047Y-59055952D01*
X134166666Y-59103571D01*
X134261904Y-59151190D01*
X134642857Y-59151190D01*
X133261904Y-59579761D02*
X133357142Y-59627380D01*
X133547619Y-59627380D01*
X133642857Y-59579761D01*
X133690476Y-59484523D01*
X133690476Y-59103571D01*
X133642857Y-59008333D01*
X133547619Y-58960714D01*
X133357142Y-58960714D01*
X133261904Y-59008333D01*
X133214285Y-59103571D01*
X133214285Y-59198809D01*
X133690476Y-59294047D01*
X132880952Y-58960714D02*
X132642857Y-59627380D01*
X132404761Y-58960714D01*
X131071428Y-58627380D02*
X130976190Y-58627380D01*
X130880952Y-58675000D01*
X130833333Y-58722619D01*
X130785714Y-58817857D01*
X130738095Y-59008333D01*
X130738095Y-59246428D01*
X130785714Y-59436904D01*
X130833333Y-59532142D01*
X130880952Y-59579761D01*
X130976190Y-59627380D01*
X131071428Y-59627380D01*
X131166666Y-59579761D01*
X131214285Y-59532142D01*
X131261904Y-59436904D01*
X131309523Y-59246428D01*
X131309523Y-59008333D01*
X131261904Y-58817857D01*
X131214285Y-58722619D01*
X131166666Y-58675000D01*
X131071428Y-58627380D01*
X130309523Y-59532142D02*
X130261904Y-59579761D01*
X130309523Y-59627380D01*
X130357142Y-59579761D01*
X130309523Y-59532142D01*
X130309523Y-59627380D01*
X129309523Y-59627380D02*
X129880952Y-59627380D01*
X129595238Y-59627380D02*
X129595238Y-58627380D01*
X129690476Y-58770238D01*
X129785714Y-58865476D01*
X129880952Y-58913095D01*
X133714285Y-60372619D02*
X133666666Y-60325000D01*
X133571428Y-60277380D01*
X133333333Y-60277380D01*
X133238095Y-60325000D01*
X133190476Y-60372619D01*
X133142857Y-60467857D01*
X133142857Y-60563095D01*
X133190476Y-60705952D01*
X133761904Y-61277380D01*
X133142857Y-61277380D01*
X132523809Y-60277380D02*
X132428571Y-60277380D01*
X132333333Y-60325000D01*
X132285714Y-60372619D01*
X132238095Y-60467857D01*
X132190476Y-60658333D01*
X132190476Y-60896428D01*
X132238095Y-61086904D01*
X132285714Y-61182142D01*
X132333333Y-61229761D01*
X132428571Y-61277380D01*
X132523809Y-61277380D01*
X132619047Y-61229761D01*
X132666666Y-61182142D01*
X132714285Y-61086904D01*
X132761904Y-60896428D01*
X132761904Y-60658333D01*
X132714285Y-60467857D01*
X132666666Y-60372619D01*
X132619047Y-60325000D01*
X132523809Y-60277380D01*
X131809523Y-60372619D02*
X131761904Y-60325000D01*
X131666666Y-60277380D01*
X131428571Y-60277380D01*
X131333333Y-60325000D01*
X131285714Y-60372619D01*
X131238095Y-60467857D01*
X131238095Y-60563095D01*
X131285714Y-60705952D01*
X131857142Y-61277380D01*
X131238095Y-61277380D01*
X130285714Y-61277380D02*
X130857142Y-61277380D01*
X130571428Y-61277380D02*
X130571428Y-60277380D01*
X130666666Y-60420238D01*
X130761904Y-60515476D01*
X130857142Y-60563095D01*
X137214285Y-75452380D02*
X136642857Y-75452380D01*
X136928571Y-76452380D02*
X136928571Y-75452380D01*
X135738095Y-76452380D02*
X136071428Y-75976190D01*
X136309523Y-76452380D02*
X136309523Y-75452380D01*
X135928571Y-75452380D01*
X135833333Y-75500000D01*
X135785714Y-75547619D01*
X135738095Y-75642857D01*
X135738095Y-75785714D01*
X135785714Y-75880952D01*
X135833333Y-75928571D01*
X135928571Y-75976190D01*
X136309523Y-75976190D01*
X135357142Y-76166666D02*
X134880952Y-76166666D01*
X135452380Y-76452380D02*
X135119047Y-75452380D01*
X134785714Y-76452380D01*
X134452380Y-76452380D02*
X134452380Y-75452380D01*
X133880952Y-76452380D01*
X133880952Y-75452380D01*
X133452380Y-76404761D02*
X133309523Y-76452380D01*
X133071428Y-76452380D01*
X132976190Y-76404761D01*
X132928571Y-76357142D01*
X132880952Y-76261904D01*
X132880952Y-76166666D01*
X132928571Y-76071428D01*
X132976190Y-76023809D01*
X133071428Y-75976190D01*
X133261904Y-75928571D01*
X133357142Y-75880952D01*
X133404761Y-75833333D01*
X133452380Y-75738095D01*
X133452380Y-75642857D01*
X133404761Y-75547619D01*
X133357142Y-75500000D01*
X133261904Y-75452380D01*
X133023809Y-75452380D01*
X132880952Y-75500000D01*
X131119047Y-76452380D02*
X131452380Y-75976190D01*
X131690476Y-76452380D02*
X131690476Y-75452380D01*
X131309523Y-75452380D01*
X131214285Y-75500000D01*
X131166666Y-75547619D01*
X131119047Y-75642857D01*
X131119047Y-75785714D01*
X131166666Y-75880952D01*
X131214285Y-75928571D01*
X131309523Y-75976190D01*
X131690476Y-75976190D01*
X130690476Y-76452380D02*
X130690476Y-75452380D01*
X129690476Y-75500000D02*
X129785714Y-75452380D01*
X129928571Y-75452380D01*
X130071428Y-75500000D01*
X130166666Y-75595238D01*
X130214285Y-75690476D01*
X130261904Y-75880952D01*
X130261904Y-76023809D01*
X130214285Y-76214285D01*
X130166666Y-76309523D01*
X130071428Y-76404761D01*
X129928571Y-76452380D01*
X129833333Y-76452380D01*
X129690476Y-76404761D01*
X129642857Y-76357142D01*
X129642857Y-76023809D01*
X129833333Y-76023809D01*
X129214285Y-76452380D02*
X129214285Y-75452380D01*
X129214285Y-75928571D02*
X128642857Y-75928571D01*
X128642857Y-76452380D02*
X128642857Y-75452380D01*
X128309523Y-75452380D02*
X127738095Y-75452380D01*
X128023809Y-76452380D02*
X128023809Y-75452380D01*
X127452380Y-76404761D02*
X127309523Y-76452380D01*
X127071428Y-76452380D01*
X126976190Y-76404761D01*
X126928571Y-76357142D01*
X126880952Y-76261904D01*
X126880952Y-76166666D01*
X126928571Y-76071428D01*
X126976190Y-76023809D01*
X127071428Y-75976190D01*
X127261904Y-75928571D01*
X127357142Y-75880952D01*
X127404761Y-75833333D01*
X127452380Y-75738095D01*
X127452380Y-75642857D01*
X127404761Y-75547619D01*
X127357142Y-75500000D01*
X127261904Y-75452380D01*
X127023809Y-75452380D01*
X126880952Y-75500000D01*
D11*
%TO.C,J1*%
X122670000Y-77410000D02*
X122670000Y-78740000D01*
X124000000Y-77410000D02*
X122670000Y-77410000D01*
X125270000Y-77410000D02*
X125270000Y-80070000D01*
X125270000Y-80070000D02*
X140570000Y-80070000D01*
X125270000Y-77410000D02*
X140570000Y-77410000D01*
X140570000Y-77410000D02*
X140570000Y-80070000D01*
%TO.C,J2*%
X135950000Y-57210000D02*
X135950000Y-55880000D01*
X134620000Y-57210000D02*
X135950000Y-57210000D01*
X133350000Y-57210000D02*
X133350000Y-54550000D01*
X133350000Y-54550000D02*
X128210000Y-54550000D01*
X133350000Y-57210000D02*
X128210000Y-57210000D01*
X128210000Y-57210000D02*
X128210000Y-54550000D01*
%TO.C,J1*%
D10*
X121122380Y-78406666D02*
X121836666Y-78406666D01*
X121979523Y-78359047D01*
X122074761Y-78263809D01*
X122122380Y-78120952D01*
X122122380Y-78025714D01*
X122122380Y-79406666D02*
X122122380Y-78835238D01*
X122122380Y-79120952D02*
X121122380Y-79120952D01*
X121265238Y-79025714D01*
X121360476Y-78930476D01*
X121408095Y-78835238D01*
%TO.C,J2*%
X137497619Y-56213333D02*
X136783333Y-56213333D01*
X136640476Y-56260952D01*
X136545238Y-56356190D01*
X136497619Y-56499047D01*
X136497619Y-56594285D01*
X137402380Y-55784761D02*
X137450000Y-55737142D01*
X137497619Y-55641904D01*
X137497619Y-55403809D01*
X137450000Y-55308571D01*
X137402380Y-55260952D01*
X137307142Y-55213333D01*
X137211904Y-55213333D01*
X137069047Y-55260952D01*
X136497619Y-55832380D01*
X136497619Y-55213333D01*
%TD*%
M02*
