%TF.GenerationSoftware,KiCad,Pcbnew,(5.1.6)-1*%
%TF.CreationDate,2021-02-02T19:23:23-08:00*%
%TF.ProjectId,DH_LEDRing,44485f4c-4544-4526-996e-672e6b696361,rev?*%
%TF.SameCoordinates,Original*%
%TF.FileFunction,Soldermask,Top*%
%TF.FilePolarity,Negative*%
%FSLAX46Y46*%
G04 Gerber Fmt 4.6, Leading zero omitted, Abs format (unit mm)*
G04 Created by KiCad (PCBNEW (5.1.6)-1) date 2021-02-02 19:23:23*
%MOMM*%
%LPD*%
G01*
G04 APERTURE LIST*
%ADD10R,1.800000X1.800000*%
%ADD11O,1.800000X1.800000*%
%ADD12C,0.100000*%
%ADD13C,4.100000*%
%ADD14C,1.900000*%
%ADD15R,0.900000X0.600000*%
%ADD16R,0.900000X0.400000*%
%ADD17R,0.600000X1.100000*%
%ADD18R,0.600000X1.580000*%
G04 APERTURE END LIST*
D10*
%TO.C,J1*%
X124000000Y-78740000D03*
D11*
X126540000Y-78740000D03*
X129080000Y-78740000D03*
X131620000Y-78740000D03*
X134160000Y-78740000D03*
X136700000Y-78740000D03*
X139240000Y-78740000D03*
%TD*%
D12*
%TO.C,D5*%
G36*
X121478272Y-56424167D02*
G01*
X121997888Y-56724167D01*
X121547888Y-57503589D01*
X121028272Y-57203589D01*
X121478272Y-56424167D01*
G37*
G36*
X120785452Y-56024167D02*
G01*
X121131862Y-56224167D01*
X120681862Y-57003589D01*
X120335452Y-56803589D01*
X120785452Y-56024167D01*
G37*
G36*
X119919426Y-55524167D02*
G01*
X120439042Y-55824167D01*
X119989042Y-56603589D01*
X119469426Y-56303589D01*
X119919426Y-55524167D01*
G37*
G36*
X119935452Y-57496411D02*
G01*
X120281862Y-57696411D01*
X119831862Y-58475833D01*
X119485452Y-58275833D01*
X119935452Y-57496411D01*
G37*
G36*
X119069426Y-56996411D02*
G01*
X119589042Y-57296411D01*
X119139042Y-58075833D01*
X118619426Y-57775833D01*
X119069426Y-56996411D01*
G37*
G36*
X120628272Y-57896411D02*
G01*
X121147888Y-58196411D01*
X120697888Y-58975833D01*
X120178272Y-58675833D01*
X120628272Y-57896411D01*
G37*
G36*
X120401144Y-57649808D02*
G01*
X120701144Y-57130192D01*
X121653772Y-57680192D01*
X121353772Y-58199808D01*
X120401144Y-57649808D01*
G37*
G36*
X118963542Y-56819808D02*
G01*
X119263542Y-56300192D01*
X120631862Y-57090192D01*
X120331862Y-57609808D01*
X118963542Y-56819808D01*
G37*
%TD*%
%TO.C,D2*%
G36*
X120178272Y-69324167D02*
G01*
X120697888Y-69024167D01*
X121147888Y-69803589D01*
X120628272Y-70103589D01*
X120178272Y-69324167D01*
G37*
G36*
X119485452Y-69724167D02*
G01*
X119831862Y-69524167D01*
X120281862Y-70303589D01*
X119935452Y-70503589D01*
X119485452Y-69724167D01*
G37*
G36*
X118619426Y-70224167D02*
G01*
X119139042Y-69924167D01*
X119589042Y-70703589D01*
X119069426Y-71003589D01*
X118619426Y-70224167D01*
G37*
G36*
X120335452Y-71196411D02*
G01*
X120681862Y-70996411D01*
X121131862Y-71775833D01*
X120785452Y-71975833D01*
X120335452Y-71196411D01*
G37*
G36*
X119469426Y-71696411D02*
G01*
X119989042Y-71396411D01*
X120439042Y-72175833D01*
X119919426Y-72475833D01*
X119469426Y-71696411D01*
G37*
G36*
X121028272Y-70796411D02*
G01*
X121547888Y-70496411D01*
X121997888Y-71275833D01*
X121478272Y-71575833D01*
X121028272Y-70796411D01*
G37*
G36*
X120701144Y-70869808D02*
G01*
X120401144Y-70350192D01*
X121353772Y-69800192D01*
X121653772Y-70319808D01*
X120701144Y-70869808D01*
G37*
G36*
X119263542Y-71699808D02*
G01*
X118963542Y-71180192D01*
X120331862Y-70390192D01*
X120631862Y-70909808D01*
X119263542Y-71699808D01*
G37*
%TD*%
D13*
%TO.C,RV1*%
X136750000Y-64000000D03*
X127250000Y-64000000D03*
D14*
X134500000Y-71500000D03*
X132000000Y-71500000D03*
X129500000Y-71500000D03*
%TD*%
D10*
%TO.C,J2*%
X134620000Y-55880000D03*
D11*
X132080000Y-55880000D03*
X129540000Y-55880000D03*
%TD*%
D12*
%TO.C,D15*%
G36*
X139296102Y-74717597D02*
G01*
X138910430Y-74257970D01*
X139599870Y-73679461D01*
X139985542Y-74139088D01*
X139296102Y-74717597D01*
G37*
G36*
X139810333Y-75330432D02*
G01*
X139553217Y-75024015D01*
X140242657Y-74445506D01*
X140499773Y-74751923D01*
X139810333Y-75330432D01*
G37*
G36*
X140453120Y-76096477D02*
G01*
X140067448Y-75636850D01*
X140756888Y-75058341D01*
X141142560Y-75517968D01*
X140453120Y-76096477D01*
G37*
G36*
X141112609Y-74237694D02*
G01*
X140855493Y-73931277D01*
X141544933Y-73352768D01*
X141802049Y-73659185D01*
X141112609Y-74237694D01*
G37*
G36*
X141755396Y-75003739D02*
G01*
X141369724Y-74544112D01*
X142059164Y-73965603D01*
X142444836Y-74425230D01*
X141755396Y-75003739D01*
G37*
G36*
X140598378Y-73624859D02*
G01*
X140212706Y-73165232D01*
X140902146Y-72586723D01*
X141287818Y-73046350D01*
X140598378Y-73624859D01*
G37*
G36*
X140727466Y-73934271D02*
G01*
X140267839Y-74319944D01*
X139560772Y-73477295D01*
X140020399Y-73091622D01*
X140727466Y-73934271D01*
G37*
G36*
X141794494Y-75205905D02*
G01*
X141334867Y-75591577D01*
X140319262Y-74381227D01*
X140778889Y-73995555D01*
X141794494Y-75205905D01*
G37*
%TD*%
%TO.C,D14*%
G36*
X142521728Y-71575833D02*
G01*
X142002112Y-71275833D01*
X142452112Y-70496411D01*
X142971728Y-70796411D01*
X142521728Y-71575833D01*
G37*
G36*
X143214548Y-71975833D02*
G01*
X142868138Y-71775833D01*
X143318138Y-70996411D01*
X143664548Y-71196411D01*
X143214548Y-71975833D01*
G37*
G36*
X144080574Y-72475833D02*
G01*
X143560958Y-72175833D01*
X144010958Y-71396411D01*
X144530574Y-71696411D01*
X144080574Y-72475833D01*
G37*
G36*
X144064548Y-70503589D02*
G01*
X143718138Y-70303589D01*
X144168138Y-69524167D01*
X144514548Y-69724167D01*
X144064548Y-70503589D01*
G37*
G36*
X144930574Y-71003589D02*
G01*
X144410958Y-70703589D01*
X144860958Y-69924167D01*
X145380574Y-70224167D01*
X144930574Y-71003589D01*
G37*
G36*
X143371728Y-70103589D02*
G01*
X142852112Y-69803589D01*
X143302112Y-69024167D01*
X143821728Y-69324167D01*
X143371728Y-70103589D01*
G37*
G36*
X143598856Y-70350192D02*
G01*
X143298856Y-70869808D01*
X142346228Y-70319808D01*
X142646228Y-69800192D01*
X143598856Y-70350192D01*
G37*
G36*
X145036458Y-71180192D02*
G01*
X144736458Y-71699808D01*
X143368138Y-70909808D01*
X143668138Y-70390192D01*
X145036458Y-71180192D01*
G37*
%TD*%
%TO.C,D13*%
G36*
X144576758Y-67537676D02*
G01*
X143985873Y-67433487D01*
X144142156Y-66547160D01*
X144733041Y-66651349D01*
X144576758Y-67537676D01*
G37*
G36*
X145364604Y-67676595D02*
G01*
X144970681Y-67607136D01*
X145126964Y-66720809D01*
X145520887Y-66790268D01*
X145364604Y-67676595D01*
G37*
G36*
X146349412Y-67850243D02*
G01*
X145758527Y-67746054D01*
X145914810Y-66859727D01*
X146505695Y-66963916D01*
X146349412Y-67850243D01*
G37*
G36*
X145659806Y-66002421D02*
G01*
X145265883Y-65932962D01*
X145422166Y-65046635D01*
X145816089Y-65116094D01*
X145659806Y-66002421D01*
G37*
G36*
X146644614Y-66176070D02*
G01*
X146053729Y-66071881D01*
X146210012Y-65185554D01*
X146800897Y-65289743D01*
X146644614Y-66176070D01*
G37*
G36*
X144871960Y-65863503D02*
G01*
X144281075Y-65759314D01*
X144437358Y-64872987D01*
X145028243Y-64977176D01*
X144871960Y-65863503D01*
G37*
G36*
X145169734Y-66017551D02*
G01*
X145065545Y-66608436D01*
X143982256Y-66417423D01*
X144086445Y-65826538D01*
X145169734Y-66017551D01*
G37*
G36*
X146804515Y-66305807D02*
G01*
X146700326Y-66896691D01*
X145144329Y-66622327D01*
X145248518Y-66031443D01*
X146804515Y-66305807D01*
G37*
%TD*%
%TO.C,D12*%
G36*
X144929763Y-63040189D02*
G01*
X144338878Y-63144378D01*
X144182595Y-62258051D01*
X144773480Y-62153862D01*
X144929763Y-63040189D01*
G37*
G36*
X145717609Y-62901271D02*
G01*
X145323686Y-62970730D01*
X145167403Y-62084403D01*
X145561326Y-62014944D01*
X145717609Y-62901271D01*
G37*
G36*
X146702417Y-62727622D02*
G01*
X146111532Y-62831811D01*
X145955249Y-61945484D01*
X146546134Y-61841295D01*
X146702417Y-62727622D01*
G37*
G36*
X145422407Y-61227097D02*
G01*
X145028484Y-61296556D01*
X144872201Y-60410229D01*
X145266124Y-60340770D01*
X145422407Y-61227097D01*
G37*
G36*
X146407215Y-61053449D02*
G01*
X145816330Y-61157638D01*
X145660047Y-60271311D01*
X146250932Y-60167122D01*
X146407215Y-61053449D01*
G37*
G36*
X144634561Y-61366016D02*
G01*
X144043676Y-61470205D01*
X143887393Y-60583878D01*
X144478278Y-60479689D01*
X144634561Y-61366016D01*
G37*
G36*
X144967065Y-61408929D02*
G01*
X145071254Y-61999814D01*
X143987965Y-62190827D01*
X143883776Y-61599942D01*
X144967065Y-61408929D01*
G37*
G36*
X146601846Y-61120674D02*
G01*
X146706035Y-61711558D01*
X145150038Y-61985922D01*
X145045849Y-61395038D01*
X146601846Y-61120674D01*
G37*
%TD*%
%TO.C,D11*%
G36*
X143896728Y-58805737D02*
G01*
X143377112Y-59105737D01*
X142927112Y-58326315D01*
X143446728Y-58026315D01*
X143896728Y-58805737D01*
G37*
G36*
X144589548Y-58405737D02*
G01*
X144243138Y-58605737D01*
X143793138Y-57826315D01*
X144139548Y-57626315D01*
X144589548Y-58405737D01*
G37*
G36*
X145455574Y-57905737D02*
G01*
X144935958Y-58205737D01*
X144485958Y-57426315D01*
X145005574Y-57126315D01*
X145455574Y-57905737D01*
G37*
G36*
X143739548Y-56933493D02*
G01*
X143393138Y-57133493D01*
X142943138Y-56354071D01*
X143289548Y-56154071D01*
X143739548Y-56933493D01*
G37*
G36*
X144605574Y-56433493D02*
G01*
X144085958Y-56733493D01*
X143635958Y-55954071D01*
X144155574Y-55654071D01*
X144605574Y-56433493D01*
G37*
G36*
X143046728Y-57333493D02*
G01*
X142527112Y-57633493D01*
X142077112Y-56854071D01*
X142596728Y-56554071D01*
X143046728Y-57333493D01*
G37*
G36*
X143373856Y-57260096D02*
G01*
X143673856Y-57779712D01*
X142721228Y-58329712D01*
X142421228Y-57810096D01*
X143373856Y-57260096D01*
G37*
G36*
X144811458Y-56430096D02*
G01*
X145111458Y-56949712D01*
X143743138Y-57739712D01*
X143443138Y-57220096D01*
X144811458Y-56430096D01*
G37*
%TD*%
%TO.C,D10*%
G36*
X141287818Y-54953650D02*
G01*
X140902146Y-55413277D01*
X140212706Y-54834768D01*
X140598378Y-54375141D01*
X141287818Y-54953650D01*
G37*
G36*
X141802049Y-54340815D02*
G01*
X141544933Y-54647232D01*
X140855493Y-54068723D01*
X141112609Y-53762306D01*
X141802049Y-54340815D01*
G37*
G36*
X142444836Y-53574770D02*
G01*
X142059164Y-54034397D01*
X141369724Y-53455888D01*
X141755396Y-52996261D01*
X142444836Y-53574770D01*
G37*
G36*
X140499773Y-53248077D02*
G01*
X140242657Y-53554494D01*
X139553217Y-52975985D01*
X139810333Y-52669568D01*
X140499773Y-53248077D01*
G37*
G36*
X141142560Y-52482032D02*
G01*
X140756888Y-52941659D01*
X140067448Y-52363150D01*
X140453120Y-51903523D01*
X141142560Y-52482032D01*
G37*
G36*
X139985542Y-53860912D02*
G01*
X139599870Y-54320539D01*
X138910430Y-53742030D01*
X139296102Y-53282403D01*
X139985542Y-53860912D01*
G37*
G36*
X140267839Y-53680056D02*
G01*
X140727466Y-54065729D01*
X140020399Y-54908378D01*
X139560772Y-54522705D01*
X140267839Y-53680056D01*
G37*
G36*
X141334867Y-52408423D02*
G01*
X141794494Y-52794095D01*
X140778889Y-54004445D01*
X140319262Y-53618773D01*
X141334867Y-52408423D01*
G37*
%TD*%
%TO.C,D9*%
G36*
X137633661Y-52322591D02*
G01*
X137428449Y-52886407D01*
X136582725Y-52578589D01*
X136787937Y-52014773D01*
X137633661Y-52322591D01*
G37*
G36*
X137907277Y-51570838D02*
G01*
X137770469Y-51946715D01*
X136924745Y-51638896D01*
X137061553Y-51263019D01*
X137907277Y-51570838D01*
G37*
G36*
X138249297Y-50631145D02*
G01*
X138044085Y-51194961D01*
X137198361Y-50887143D01*
X137403573Y-50323327D01*
X138249297Y-50631145D01*
G37*
G36*
X136309799Y-50989404D02*
G01*
X136172991Y-51365281D01*
X135327267Y-51057462D01*
X135464075Y-50681585D01*
X136309799Y-50989404D01*
G37*
G36*
X136651819Y-50049711D02*
G01*
X136446607Y-50613527D01*
X135600883Y-50305709D01*
X135806095Y-49741893D01*
X136651819Y-50049711D01*
G37*
G36*
X136036183Y-51741157D02*
G01*
X135830971Y-52304973D01*
X134985247Y-51997155D01*
X135190459Y-51433339D01*
X136036183Y-51741157D01*
G37*
G36*
X136239598Y-51474658D02*
G01*
X136803414Y-51679870D01*
X136427192Y-52713532D01*
X135863376Y-52508320D01*
X136239598Y-51474658D01*
G37*
G36*
X136807352Y-49914768D02*
G01*
X137371168Y-50119980D01*
X136830776Y-51604694D01*
X136266960Y-51399482D01*
X136807352Y-49914768D01*
G37*
%TD*%
D15*
%TO.C,D8*%
X132850000Y-51400000D03*
D16*
X132850000Y-50500000D03*
D15*
X132850000Y-49600000D03*
D16*
X131150000Y-50500000D03*
D15*
X131150000Y-49600000D03*
X131150000Y-51400000D03*
D17*
X132000000Y-51330000D03*
D18*
X132000000Y-49910000D03*
%TD*%
D12*
%TO.C,D7*%
G36*
X128809541Y-51433339D02*
G01*
X129014753Y-51997155D01*
X128169029Y-52304973D01*
X127963817Y-51741157D01*
X128809541Y-51433339D01*
G37*
G36*
X128535925Y-50681585D02*
G01*
X128672733Y-51057462D01*
X127827009Y-51365281D01*
X127690201Y-50989404D01*
X128535925Y-50681585D01*
G37*
G36*
X128193905Y-49741893D02*
G01*
X128399117Y-50305709D01*
X127553393Y-50613527D01*
X127348181Y-50049711D01*
X128193905Y-49741893D01*
G37*
G36*
X126938447Y-51263019D02*
G01*
X127075255Y-51638896D01*
X126229531Y-51946715D01*
X126092723Y-51570838D01*
X126938447Y-51263019D01*
G37*
G36*
X126596427Y-50323327D02*
G01*
X126801639Y-50887143D01*
X125955915Y-51194961D01*
X125750703Y-50631145D01*
X126596427Y-50323327D01*
G37*
G36*
X127212063Y-52014773D02*
G01*
X127417275Y-52578589D01*
X126571551Y-52886407D01*
X126366339Y-52322591D01*
X127212063Y-52014773D01*
G37*
G36*
X127196586Y-51679870D02*
G01*
X127760402Y-51474658D01*
X128136624Y-52508320D01*
X127572808Y-52713532D01*
X127196586Y-51679870D01*
G37*
G36*
X126628832Y-50119980D02*
G01*
X127192648Y-49914768D01*
X127733040Y-51399482D01*
X127169224Y-51604694D01*
X126628832Y-50119980D01*
G37*
%TD*%
%TO.C,D6*%
G36*
X124703898Y-53282403D02*
G01*
X125089570Y-53742030D01*
X124400130Y-54320539D01*
X124014458Y-53860912D01*
X124703898Y-53282403D01*
G37*
G36*
X124189667Y-52669568D02*
G01*
X124446783Y-52975985D01*
X123757343Y-53554494D01*
X123500227Y-53248077D01*
X124189667Y-52669568D01*
G37*
G36*
X123546880Y-51903523D02*
G01*
X123932552Y-52363150D01*
X123243112Y-52941659D01*
X122857440Y-52482032D01*
X123546880Y-51903523D01*
G37*
G36*
X122887391Y-53762306D02*
G01*
X123144507Y-54068723D01*
X122455067Y-54647232D01*
X122197951Y-54340815D01*
X122887391Y-53762306D01*
G37*
G36*
X122244604Y-52996261D02*
G01*
X122630276Y-53455888D01*
X121940836Y-54034397D01*
X121555164Y-53574770D01*
X122244604Y-52996261D01*
G37*
G36*
X123401622Y-54375141D02*
G01*
X123787294Y-54834768D01*
X123097854Y-55413277D01*
X122712182Y-54953650D01*
X123401622Y-54375141D01*
G37*
G36*
X123272534Y-54065729D02*
G01*
X123732161Y-53680056D01*
X124439228Y-54522705D01*
X123979601Y-54908378D01*
X123272534Y-54065729D01*
G37*
G36*
X122205506Y-52794095D02*
G01*
X122665133Y-52408423D01*
X123680738Y-53618773D01*
X123221111Y-54004445D01*
X122205506Y-52794095D01*
G37*
%TD*%
%TO.C,D4*%
G36*
X119521722Y-60479689D02*
G01*
X120112607Y-60583878D01*
X119956324Y-61470205D01*
X119365439Y-61366016D01*
X119521722Y-60479689D01*
G37*
G36*
X118733876Y-60340770D02*
G01*
X119127799Y-60410229D01*
X118971516Y-61296556D01*
X118577593Y-61227097D01*
X118733876Y-60340770D01*
G37*
G36*
X117749068Y-60167122D02*
G01*
X118339953Y-60271311D01*
X118183670Y-61157638D01*
X117592785Y-61053449D01*
X117749068Y-60167122D01*
G37*
G36*
X118438674Y-62014944D02*
G01*
X118832597Y-62084403D01*
X118676314Y-62970730D01*
X118282391Y-62901271D01*
X118438674Y-62014944D01*
G37*
G36*
X117453866Y-61841295D02*
G01*
X118044751Y-61945484D01*
X117888468Y-62831811D01*
X117297583Y-62727622D01*
X117453866Y-61841295D01*
G37*
G36*
X119226520Y-62153862D02*
G01*
X119817405Y-62258051D01*
X119661122Y-63144378D01*
X119070237Y-63040189D01*
X119226520Y-62153862D01*
G37*
G36*
X118928746Y-61999814D02*
G01*
X119032935Y-61408929D01*
X120116224Y-61599942D01*
X120012035Y-62190827D01*
X118928746Y-61999814D01*
G37*
G36*
X117293965Y-61711558D02*
G01*
X117398154Y-61120674D01*
X118954151Y-61395038D01*
X118849962Y-61985922D01*
X117293965Y-61711558D01*
G37*
%TD*%
%TO.C,D3*%
G36*
X119070237Y-64959811D02*
G01*
X119661122Y-64855622D01*
X119817405Y-65741949D01*
X119226520Y-65846138D01*
X119070237Y-64959811D01*
G37*
G36*
X118282391Y-65098729D02*
G01*
X118676314Y-65029270D01*
X118832597Y-65915597D01*
X118438674Y-65985056D01*
X118282391Y-65098729D01*
G37*
G36*
X117297583Y-65272378D02*
G01*
X117888468Y-65168189D01*
X118044751Y-66054516D01*
X117453866Y-66158705D01*
X117297583Y-65272378D01*
G37*
G36*
X118577593Y-66772903D02*
G01*
X118971516Y-66703444D01*
X119127799Y-67589771D01*
X118733876Y-67659230D01*
X118577593Y-66772903D01*
G37*
G36*
X117592785Y-66946551D02*
G01*
X118183670Y-66842362D01*
X118339953Y-67728689D01*
X117749068Y-67832878D01*
X117592785Y-66946551D01*
G37*
G36*
X119365439Y-66633984D02*
G01*
X119956324Y-66529795D01*
X120112607Y-67416122D01*
X119521722Y-67520311D01*
X119365439Y-66633984D01*
G37*
G36*
X119032935Y-66591071D02*
G01*
X118928746Y-66000186D01*
X120012035Y-65809173D01*
X120116224Y-66400058D01*
X119032935Y-66591071D01*
G37*
G36*
X117398154Y-66879326D02*
G01*
X117293965Y-66288442D01*
X118849962Y-66014078D01*
X118954151Y-66604962D01*
X117398154Y-66879326D01*
G37*
%TD*%
%TO.C,D1*%
G36*
X122712182Y-73046350D02*
G01*
X123097854Y-72586723D01*
X123787294Y-73165232D01*
X123401622Y-73624859D01*
X122712182Y-73046350D01*
G37*
G36*
X122197951Y-73659185D02*
G01*
X122455067Y-73352768D01*
X123144507Y-73931277D01*
X122887391Y-74237694D01*
X122197951Y-73659185D01*
G37*
G36*
X121555164Y-74425230D02*
G01*
X121940836Y-73965603D01*
X122630276Y-74544112D01*
X122244604Y-75003739D01*
X121555164Y-74425230D01*
G37*
G36*
X123500227Y-74751923D02*
G01*
X123757343Y-74445506D01*
X124446783Y-75024015D01*
X124189667Y-75330432D01*
X123500227Y-74751923D01*
G37*
G36*
X122857440Y-75517968D02*
G01*
X123243112Y-75058341D01*
X123932552Y-75636850D01*
X123546880Y-76096477D01*
X122857440Y-75517968D01*
G37*
G36*
X124014458Y-74139088D02*
G01*
X124400130Y-73679461D01*
X125089570Y-74257970D01*
X124703898Y-74717597D01*
X124014458Y-74139088D01*
G37*
G36*
X123732161Y-74319944D02*
G01*
X123272534Y-73934271D01*
X123979601Y-73091622D01*
X124439228Y-73477295D01*
X123732161Y-74319944D01*
G37*
G36*
X122665133Y-75591577D02*
G01*
X122205506Y-75205905D01*
X123221111Y-73995555D01*
X123680738Y-74381227D01*
X122665133Y-75591577D01*
G37*
%TD*%
%TO.C,C2*%
G36*
G01*
X137062500Y-73718750D02*
X137062500Y-74281250D01*
G75*
G02*
X136818750Y-74525000I-243750J0D01*
G01*
X136331250Y-74525000D01*
G75*
G02*
X136087500Y-74281250I0J243750D01*
G01*
X136087500Y-73718750D01*
G75*
G02*
X136331250Y-73475000I243750J0D01*
G01*
X136818750Y-73475000D01*
G75*
G02*
X137062500Y-73718750I0J-243750D01*
G01*
G37*
G36*
G01*
X135487500Y-73718750D02*
X135487500Y-74281250D01*
G75*
G02*
X135243750Y-74525000I-243750J0D01*
G01*
X134756250Y-74525000D01*
G75*
G02*
X134512500Y-74281250I0J243750D01*
G01*
X134512500Y-73718750D01*
G75*
G02*
X134756250Y-73475000I243750J0D01*
G01*
X135243750Y-73475000D01*
G75*
G02*
X135487500Y-73718750I0J-243750D01*
G01*
G37*
%TD*%
%TO.C,C1*%
G36*
G01*
X126937500Y-74281250D02*
X126937500Y-73718750D01*
G75*
G02*
X127181250Y-73475000I243750J0D01*
G01*
X127668750Y-73475000D01*
G75*
G02*
X127912500Y-73718750I0J-243750D01*
G01*
X127912500Y-74281250D01*
G75*
G02*
X127668750Y-74525000I-243750J0D01*
G01*
X127181250Y-74525000D01*
G75*
G02*
X126937500Y-74281250I0J243750D01*
G01*
G37*
G36*
G01*
X128512500Y-74281250D02*
X128512500Y-73718750D01*
G75*
G02*
X128756250Y-73475000I243750J0D01*
G01*
X129243750Y-73475000D01*
G75*
G02*
X129487500Y-73718750I0J-243750D01*
G01*
X129487500Y-74281250D01*
G75*
G02*
X129243750Y-74525000I-243750J0D01*
G01*
X128756250Y-74525000D01*
G75*
G02*
X128512500Y-74281250I0J243750D01*
G01*
G37*
%TD*%
M02*
