M48
INCH,TZ
T1C0.0157
T2C0.0394
T3C0.1378
%
G90
G05
T1
X45669Y-24016
X45669Y-26378
X46457Y-22047
X46457Y-28346
X47047Y-25197
X47244Y-23425
X47244Y-26969
X48031Y-20472
X48031Y-21850
X48031Y-24409
X48031Y-25984
X48031Y-29921
X48228Y-28346
X48425Y-23228
X48425Y-27165
X49213Y-22047
X49213Y-28346
X49409Y-20866
X49606Y-19291
X49606Y-29528
X50787Y-21260
X51181Y-20276
X51181Y-28740
X51969Y-18898
X51969Y-21260
X51969Y-29134
X52756Y-20276
X52756Y-28740
X53543Y-21260
X53937Y-19291
X54331Y-28740
X54528Y-20866
X54724Y-22047
X55512Y-23228
X55512Y-27559
X55709Y-28346
X55906Y-20472
X55906Y-22047
X55906Y-24803
X55906Y-25984
X55906Y-29921
X56693Y-23622
X56693Y-26969
X56890Y-25197
X57480Y-22047
X57480Y-28346
X58268Y-24016
X58268Y-26378
T2
X50984Y-28150
X51969Y-28150
X52953Y-28150
X51000Y-22000
X52000Y-22000
X53000Y-22000
X48819Y-31000
X49819Y-31000
X50819Y-31000
X51819Y-31000
X52819Y-31000
X53819Y-31000
X54819Y-31000
T3
X46457Y-19685
X46457Y-30709
X57480Y-19685
X57480Y-30709
T0
M30
